<?xml version="1.0" standalone="no"?><!DOCTYPE svg PUBLIC "-//W3C//DTD SVG 1.1//EN" "http://www.w3.org/Graphics/SVG/1.1/DTD/svg11.dtd"><svg t="1600744240061" class="icon" viewBox="0 0 1024 1024" version="1.1" xmlns="http://www.w3.org/2000/svg" p-id="13028" xmlns:xlink="http://www.w3.org/1999/xlink" width="200" height="200"><defs><style type="text/css"></style></defs><path d="M420.6 182.7h510.3c16.5 0 29.9 13.5 29.9 29.9v362.5c0 16.5-13.5 29.9-29.9 29.9h-54.5v105.6H874L768.4 605H420.6c-16.5 0-29.9-13.5-29.9-29.9V212.6c0-16.5 13.4-29.9 29.9-29.9z" fill="#A4BEFF" p-id="13029"></path><path d="M846.4 384.2H617.7c-9.7 0-17.6-7.9-17.6-17.6v-10.1c0-9.7 7.9-17.6 17.6-17.6h228.7c9.7 0 17.6 7.9 17.6 17.6v10.1c0 9.7-7.9 17.6-17.6 17.6z" fill="#E5ECFF" p-id="13030"></path><path d="M695.1 291.7H402.3v314.2h325.8V324.7c0-18.2-14.8-33-33-33z" fill="#83A4FF" p-id="13031"></path><path d="M660.2 291.7H97.8c-18.1 0-33 14.8-33 33v399.5c0 18.1 14.8 33 33 33h60.1v116.4h2.6l116.4-116.4h383.3c18.1 0 33-14.8 33-33V324.7c0-18.2-14.8-33-33-33z" fill="#5B79FB" p-id="13032"></path><path d="M547.1 477.9H210.9c-9.9 0-18.1-8.1-18.1-18.1v-10.4c0-9.9 8.1-18.1 18.1-18.1h336.2c9.9 0 18.1 8.1 18.1 18.1v10.4c0 9.9-8.1 18.1-18.1 18.1z" fill="#FF7E71" p-id="13033"></path><path d="M439.1 593.6H210.5c-9.7 0-17.6-7.9-17.6-17.6v-10.1c0-9.7 7.9-17.6 17.6-17.6h228.7c9.7 0 17.6 7.9 17.6 17.6V576c-0.1 9.7-8 17.6-17.7 17.6z" fill="#FFFFFF" p-id="13034"></path></svg>