<?xml version="1.0" standalone="no"?><!DOCTYPE svg PUBLIC "-//W3C//DTD SVG 1.1//EN" "http://www.w3.org/Graphics/SVG/1.1/DTD/svg11.dtd"><svg t="1638263804095" class="icon" viewBox="0 0 1024 1024" version="1.1" xmlns="http://www.w3.org/2000/svg" p-id="8085" xmlns:xlink="http://www.w3.org/1999/xlink" width="200" height="200"><defs><style type="text/css"></style></defs><path d="M376.722 668.903m131.6 0l8.682 0q131.6 0 131.6 131.6l0 8.596q0 131.6-131.6 131.6l-8.682 0q-131.6 0-131.6-131.6l0-8.596q0-131.6 131.6-131.6Z" fill="#A5E8D0" p-id="8086"></path><path d="M762.644 865.5h121.482V744.102H762.644V865.5z m-288.81-390.736V434.67c0-20.766 16.835-37.6 37.6-37.6h2.457c20.766 0 37.6 16.834 37.6 37.6v40.093h370.235c20.766 0 37.6 16.834 37.6 37.6v2.456c0 20.765-16.834 37.6-37.6 37.6H551.49v40.092c0 20.766-16.834 37.6-37.6 37.6h-2.456c-20.766 0-37.6-16.834-37.6-37.6V552.42H103.6c-20.766 0-37.6-16.835-37.6-37.6v-2.456c0-20.766 16.834-37.6 37.6-37.6h370.235z m251.21 194.14h196.682c20.766 0 37.6 16.834 37.6 37.6v196.595c0 20.766-16.834 37.6-37.6 37.6H725.044c-20.766 0-37.6-16.834-37.6-37.6V706.503c0-20.765 16.834-37.6 37.6-37.6zM141.2 865.498h121.482V744.103H141.2V865.5zM103.6 668.903h196.682c20.766 0 37.6 16.835 37.6 37.6V903.1c0 20.766-16.834 37.6-37.6 37.6H103.6C82.834 940.7 66 923.865 66 903.1V706.503c0-20.765 16.834-37.6 37.6-37.6zM141.2 161.684V283.08h742.926V161.684H141.2zM103.6 86.484h818.126c20.766 0 37.6 16.834 37.6 37.6V320.68c0 20.766-16.834 37.6-37.6 37.6H103.6c-20.766 0-37.6-16.834-37.6-37.6V124.084C66 103.318 82.834 86.484 103.6 86.484z" fill="#4CA7FF" p-id="8087"></path></svg>