<svg t="1606547989573" class="icon" viewBox="0 0 1024 1024" version="1.1" xmlns="http://www.w3.org/2000/svg" p-id="15266" id="mx_n_1606547989574" width="16" height="16"><path d="M792.576 325.632l-325.632 327.168-98.816-93.696 325.632-327.168z m-449.024 256l99.328 93.696-145.92 51.2zM819.2 301.568l-102.4-93.696 30.208-30.208a61.952 61.952 0 0 1 85.504 0l12.288 11.776a57.856 57.856 0 0 1 0 83.456zM774.656 870.4H249.344A95.744 95.744 0 0 1 153.6 774.656V249.344A95.744 95.744 0 0 1 249.344 153.6h346.624a11.776 11.776 0 0 1 11.776 11.776v24.064a11.776 11.776 0 0 1-11.776 11.776H272.896a71.68 71.68 0 0 0-71.68 71.68v477.696a71.68 71.68 0 0 0 71.68 71.68h477.696a71.68 71.68 0 0 0 71.68-71.68V428.544a11.776 11.776 0 0 1 11.776-11.776h24.064a11.776 11.776 0 0 1 11.776 11.776v346.624A95.744 95.744 0 0 1 774.656 870.4z" fill="#555555" p-id="15267" data-spm-anchor-id="a313x.7781069.0.i56" class=""></path></svg>