<?xml version="1.0" standalone="no"?><!DOCTYPE svg PUBLIC "-//W3C//DTD SVG 1.1//EN" "http://www.w3.org/Graphics/SVG/1.1/DTD/svg11.dtd"><svg t="1624370479685" class="icon" viewBox="0 0 1024 1024" version="1.1" xmlns="http://www.w3.org/2000/svg" p-id="2600" xmlns:xlink="http://www.w3.org/1999/xlink" width="16" height="16"><defs><style type="text/css"></style></defs><path d="M234.0864 881.6128V436.0704c0-18.0224-12.1344-32.6144-27.0848-32.6144H149.1968c-27.904 0-50.4832 27.2384-50.4832 60.8768v389.0688c0 33.6384 22.6304 60.8768 50.4832 60.8768h57.8048c14.9504 0 27.0848-14.6432 27.0848-32.6656z" fill="#7A7AF9" p-id="2601"></path><path d="M272.9984 890.7264V426.5472c0-10.7008 7.168-20.1216 17.5104-22.7328 36.4544-9.3184 120.1152-42.7008 155.6992-156.6208 21.6576-99.7888 45.1584-146.8416 114.8416-141.2096s74.3424 73.4208 74.3424 94.1056v160s-5.632 24.4736 17.8688 26.368c23.552 1.8944 207.104 0 207.104 0s100.7104-1.6896 68.7104 123.392c-27.8528 108.8-82.944 283.8528-96.8704 327.6288-2.8672 9.0624-6.9632 17.6128-12.3392 25.4976-13.4656 19.6608-41.7792 51.2-85.0432 51.2H296.4992c-13.0048 0.1024-23.5008-10.4448-23.5008-23.4496z" fill="#CCDAFF" p-id="2602"></path></svg>