<?xml version="1.0" standalone="no"?><!DOCTYPE svg PUBLIC "-//W3C//DTD SVG 1.1//EN" "http://www.w3.org/Graphics/SVG/1.1/DTD/svg11.dtd"><svg t="1628243483747" class="icon" viewBox="0 0 1024 1024" version="1.1" xmlns="http://www.w3.org/2000/svg" p-id="1218" xmlns:xlink="http://www.w3.org/1999/xlink" width="200" height="200"><defs><style type="text/css"></style></defs><path d="M938.68288 391.125333a225.024 225.024 0 0 1-81.493333 173.952c-34.602667 31.018667-70.741333 63.914667-179.925334 163.712l-16.512 15.061334a48356.693333 48356.693333 0 0 1-148.778666 135.68c-43.349333-39.125333-112.128-101.845333-224.768-204.842667a25658.88 25658.88 0 0 0-112.042667-102.186667 297.088 297.088 0 0 0-11.861333-10.453333C114.36288 520.661333 85.861547 458.752 85.349547 391.594667a225.749333 225.749333 0 0 1 64.725333-160.64C188.816213 191.786667 238.437547 170.666667 290.576213 170.666667c59.733333 0 115.712 27.178667 155.093334 75.776l66.304 81.834666 66.304-81.834666C617.573547 197.845333 673.59488 170.666667 733.328213 170.666667c52.266667 0 101.930667 20.992 140.458667 59.776 20.224 20.394667 36.138667 44.373333 47.402667 71.466666A229.973333 229.973333 0 0 1 938.68288 391.125333z m-370.218667-252.117333a297.045333 297.045333 0 0 0-56.533333 53.717333 297.045333 297.045333 0 0 0-62.72-58.069333A279.893333 279.893333 0 0 0 290.49088 85.333333c-75.093333 0-146.474667 30.378667-201.045333 85.589334A311.04 311.04 0 0 0 0.016213 392.362667c0.682667 91.733333 40.106667 177.237333 108.074667 234.794666 3.114667 2.602667 5.973333 5.12 8.874667 7.808 14.933333 13.397333 58.026667 52.821333 112.64 102.698667 93.44 85.504 209.877333 191.872 257.493333 234.154667a37.333333 37.333333 0 0 0 49.792 0c34.474667-30.72 105.813333-95.872 181.376-164.949334 74.24-67.84 150.912-137.984 195.84-178.176 69.461333-57.898667 109.568-144.384 109.866667-237.312a315.434667 315.434667 0 0 0-24.021334-122.154666 306.517333 306.517333 0 0 0-65.706666-98.901334C879.973547 115.541333 808.549547 85.333333 733.37088 85.333333a279.893333 279.893333 0 0 0-158.677333 49.322667 35.242667 35.242667 0 0 0-6.186667 4.352z" p-id="1219"></path></svg>