<?xml version="1.0" standalone="no"?><!DOCTYPE svg PUBLIC "-//W3C//DTD SVG 1.1//EN" "http://www.w3.org/Graphics/SVG/1.1/DTD/svg11.dtd"><svg t="1600766379381" class="icon" viewBox="0 0 1024 1024" version="1.1" xmlns="http://www.w3.org/2000/svg" p-id="10171" xmlns:xlink="http://www.w3.org/1999/xlink" width="200" height="200"><defs><style type="text/css"></style></defs><path d="M128 640h256v256H128z" fill="#4A8BFE" p-id="10172"></path><path d="M384 928H128a32 32 0 0 1-32-32v-256a32 32 0 0 1 32-32h256a32 32 0 0 1 32 32v256a32 32 0 0 1-32 32z m-224-64h192v-192H160zM512 672h288M800 704h-288a32 32 0 0 1 0-64h288a32 32 0 0 1 0 64zM512 864h384M896 896H512a32 32 0 0 1 0-64h384a32 32 0 0 1 0 64zM128 128h256v256H128z" fill="#4A8BFE" p-id="10173"></path><path d="M384 416H128a32 32 0 0 1-32-32V128a32 32 0 0 1 32-32h256a32 32 0 0 1 32 32v256a32 32 0 0 1-32 32z m-224-64h192V160H160zM512 160h288M800 192h-288a32 32 0 0 1 0-64h288a32 32 0 0 1 0 64zM512 352h384M896 384H512a32 32 0 0 1 0-64h384a32 32 0 0 1 0 64z" fill="#4A8BFE" p-id="10174"></path></svg>