<?xml version="1.0" standalone="no"?><!DOCTYPE svg PUBLIC "-//W3C//DTD SVG 1.1//EN" "http://www.w3.org/Graphics/SVG/1.1/DTD/svg11.dtd"><svg t="1629732840699" class="icon" viewBox="0 0 1024 1024" version="1.1" xmlns="http://www.w3.org/2000/svg" p-id="3335" xmlns:xlink="http://www.w3.org/1999/xlink" width="200" height="200"><defs><style type="text/css"></style></defs><path d="M726.62 466.38c-14.99 0-27.15-12.16-27.15-27.15V305.76c0-103.36-84.09-187.46-187.46-187.46s-187.47 84.1-187.47 187.46v129.69c0 14.99-12.16 27.15-27.15 27.15-14.99 0-27.15-12.16-27.15-27.15V305.76C270.24 172.45 378.7 64 512 64s241.77 108.45 241.77 241.76v133.47c0 14.99-12.16 27.15-27.15 27.15z" p-id="3336" data-spm-anchor-id="a313x.7781069.0.i17" class=""></path><path d="M805.18 960H218.82c-29.99 0-54.3-24.31-54.3-54.3V504.67c0-29.99 24.31-54.3 54.3-54.3h586.35c29.99 0 54.3 24.31 54.3 54.3V905.7c0.01 29.99-24.3 54.3-54.29 54.3z" p-id="3337" data-spm-anchor-id="a313x.7781069.0.i16" class=""></path><path d="M579.88 663.33c0-37.49-30.39-67.88-67.88-67.88s-67.88 30.39-67.88 67.88c0 26.66 15.51 49.49 37.87 60.6v60.97c0 16.57 13.43 30.01 30.01 30.01s30.01-13.44 30.01-30.01v-60.97c22.36-11.1 37.87-33.94 37.87-60.6z" fill="#8c9eff" p-id="3338" data-spm-anchor-id="a313x.7781069.0.i13" class=""></path></svg>