<?xml version="1.0" standalone="no" ?>
<!DOCTYPE svg PUBLIC "-//W3C//DTD SVG 1.1//EN" "http://www.w3.org/Graphics/SVG/1.1/DTD/svg11.dtd">
<svg t="1622911850271" class="icon" viewBox="0 0 1024 1024" version="1.1" xmlns="http://www.w3.org/2000/svg" p-id="2072" xmlns:xlink="http://www.w3.org/1999/xlink" width="48" height="48">
  <defs>
    <style type="text/css"></style>
  </defs>
  <path d="M600 855.2c-61.3 0-118.9-23.9-162.2-67.2s-67.2-100.9-67.2-162.2 23.9-118.9 67.2-162.2 100.9-67.2 162.2-67.2 118.9 23.9 162.2 67.2c43.3 43.3 67.2 100.9 67.2 162.2S805.5 744.7 762.2 788s-101 67.2-162.2 67.2z m0-378.7c-82.4 0-149.4 67-149.4 149.4s67 149.4 149.4 149.4 149.4-67 149.4-149.4S682.3 476.5 600 476.5z" p-id="2073" data-spm-anchor-id="a313x.7781069.0.i0" class="selected"></path>
  <path d="M789.3 665.8c-22.1 0-40-17.9-40-40V209.3c0-22.1 17.9-40 40-40s40 17.9 40 40v416.6c0 22-17.9 39.9-40 39.9z" p-id="2074" data-spm-anchor-id="a313x.7781069.0.i2" class="selected"></path>
  <path d="M915.6 400.7c-11.5 0-22.8-4.9-30.8-14.4L758.6 234.9c-14.1-17-11.8-42.2 5.1-56.3s42.2-11.8 56.3 5.1l126.2 151.5c14.1 17 11.8 42.2-5.1 56.3-7.4 6.2-16.5 9.2-25.5 9.2z" p-id="2075" data-spm-anchor-id="a313x.7781069.0.i3" class="selected"></path>
  <path d="M562.1 249.3H107.7c-22.1 0-40-17.9-40-40s17.9-40 40-40h454.5c22.1 0 40 17.9 40 40s-18 40-40.1 40zM259.1 552.2H107.7c-22.1 0-40-17.9-40-40s17.9-40 40-40h151.5c22.1 0 40 17.9 40 40s-18 40-40.1 40zM334.9 855.2H107.7c-22.1 0-40-17.9-40-40s17.9-40 40-40h227.2c22.1 0 40 17.9 40 40s-17.9 40-40 40z" p-id="2076" data-spm-anchor-id="a313x.7781069.0.i1" class="selected"></path>
</svg>