<?xml version="1.0" standalone="no" ?>
<!DOCTYPE svg PUBLIC "-//W3C//DTD SVG 1.1//EN" "http://www.w3.org/Graphics/SVG/1.1/DTD/svg11.dtd">
<svg t="1622911225017" class="icon" viewBox="0 0 1024 1024" version="1.1" xmlns="http://www.w3.org/2000/svg" p-id="2591" xmlns:xlink="http://www.w3.org/1999/xlink" width="48" height="48">
  <defs>
    <style type="text/css"></style>
  </defs>
  <path d="M566.9888 906.7008c-11.6224 0-23.1424-3.7376-32.8192-11.1104l-175.104-132.5568H152.6272c-51.4048 0-93.2352-41.8304-93.2352-93.2352V373.1968c0-51.4048 41.8304-93.2352 93.2352-93.2352h206.3872l175.104-132.5568a54.1184 54.1184 0 0 1 57.1392-5.376c18.6368 9.2672 30.2592 27.9552 30.2592 48.7936v661.3504c0 20.8384-11.5712 39.5264-30.2592 48.7936-7.7312 3.84-16.0256 5.7344-24.2688 5.7344zM152.6272 341.3504c-17.5616 0-31.7952 14.2848-31.7952 31.7952v296.6016c0 17.5616 14.2848 31.7952 31.7952 31.7952h216.7296c6.7072 0 13.2096 2.2016 18.5344 6.2464l172.2368 130.4064V204.7488L387.8912 335.1552a30.63296 30.63296 0 0 1-18.5344 6.2464H152.6272z m418.6112-145.0496c-0.0512 0.0512 0 0 0 0z m-18.5856-24.4736z" p-id="2592" data-spm-anchor-id="a313x.7781069.0.i30" class="selected"></path>
  <path d="M941.7216 699.0336c-8.8064 0-17.5616-3.7888-23.6544-11.1104l-227.328-273.6128a30.70976 30.70976 0 0 1 3.9936-43.264 30.70976 30.70976 0 0 1 43.264 3.9936l227.328 273.6128a30.70976 30.70976 0 0 1-3.9936 43.264 30.3616 30.3616 0 0 1-19.6096 7.1168z" p-id="2593" data-spm-anchor-id="a313x.7781069.0.i32" class="selected"></path>
  <path d="M714.3424 699.0336c-6.912 0-13.8752-2.304-19.6096-7.0656a30.70976 30.70976 0 0 1-3.9936-43.264l227.328-273.6128c10.8544-13.056 30.208-14.848 43.264-3.9936 13.056 10.8544 14.848 30.208 3.9936 43.264l-227.328 273.6128a30.65856 30.65856 0 0 1-23.6544 11.0592z" p-id="2594" data-spm-anchor-id="a313x.7781069.0.i31" class="selected"></path>
</svg>