<?xml version="1.0" standalone="no"?><!DOCTYPE svg PUBLIC "-//W3C//DTD SVG 1.1//EN" "http://www.w3.org/Graphics/SVG/1.1/DTD/svg11.dtd"><svg t="1629882613147" class="icon" viewBox="0 0 1024 1024" version="1.1" xmlns="http://www.w3.org/2000/svg" p-id="5052" xmlns:xlink="http://www.w3.org/1999/xlink" width="200" height="200"><defs><style type="text/css"></style></defs><path d="M292 192h440c55.228 0 100 44.772 100 100v440c0 55.228-44.772 100-100 100H292c-55.228 0-100-44.772-100-100V292c0-55.228 44.772-100 100-100z" fill="#4988FD" p-id="5053"></path><path d="M574.07 283.178h117.568c27.164 0 49.186 22.022 49.186 49.186v117.568c0 27.166-22.022 49.186-49.186 49.186h-117.568c-27.164 0-49.188-22.022-49.188-49.186v-117.568c0-27.164 22.024-49.186 49.188-49.186z" fill="#DFECFD" p-id="5054"></path><path d="M308.596 605.028h406.8c14.042 0 25.424 10.742 25.424 24s-11.384 24-25.424 24h-406.8c-14.04-0.014-25.424-10.754-25.424-24 0-13.242 11.384-24 25.424-24zM307.172 704.122h211.136c13.25 0.32 23.732 11.32 23.414 24.57-0.31 12.8-10.614 23.106-23.414 23.414H307.172c-13.25-0.32-23.734-11.32-23.414-24.572 0.31-12.802 10.614-23.104 23.414-23.412z" fill="#FFFFFF" p-id="5055"></path><path d="M307.172 301.118h107.964c13.25 0.32 23.734 11.322 23.414 24.572-0.31 12.8-10.614 23.104-23.414 23.414h-107.964c-13.25-0.32-23.734-11.322-23.414-24.574 0.31-12.8 10.614-23.102 23.414-23.412zM307.172 381.402h107.964c13.25 0.32 23.734 11.322 23.414 24.572-0.31 12.8-10.614 23.104-23.414 23.414h-107.964c-13.25-0.32-23.734-11.322-23.414-24.572 0.31-12.802 10.614-23.106 23.414-23.414zM307.172 461.672h107.964c13.25 0.32 23.734 11.322 23.414 24.572-0.31 12.8-10.614 23.104-23.414 23.414h-107.964c-13.25-0.32-23.734-11.322-23.414-24.574 0.31-12.798 10.614-23.102 23.414-23.412z" fill="#DFECFD" p-id="5056"></path></svg>