<?xml version="1.0" standalone="no"?><!DOCTYPE svg PUBLIC "-//W3C//DTD SVG 1.1//EN" "http://www.w3.org/Graphics/SVG/1.1/DTD/svg11.dtd"><svg t="1628156832334" class="icon" viewBox="0 0 1024 1024" version="1.1" xmlns="http://www.w3.org/2000/svg" p-id="6454" xmlns:xlink="http://www.w3.org/1999/xlink" width="200" height="200"><defs><style type="text/css"></style></defs><path d="M717.11 183.83H265.87c-49.59 0-82.04 28.71-82.04 82.04v492.26c0 53.33 32.45 82.04 82.04 82.04h492.26c49.23 0 82.04-28.72 82.04-82.04V315.39c0-5.44-2.16-10.65-6.01-14.5L717.11 183.83z m0 287.15H306.89V183.83h410.22v287.15z" fill="#2E3133" p-id="6455"></path><path d="M512.5 183.83h122.07c0.28 0 0.5 0.22 0.5 0.5v204.11c0 0.28-0.22 0.5-0.5 0.5H512.5c-0.28 0-0.5-0.22-0.5-0.5V184.33c0-0.28 0.22-0.5 0.5-0.5z" fill="#2E3133" opacity=".3" p-id="6456"></path></svg>