<svg t="1600001208622" class="icon" viewBox="0 0 1024 1024" version="1.1" xmlns="http://www.w3.org/2000/svg" p-id="13805" width="20" height="20">
    <path d="M114.944 662.528a27.80672 27.80672 0 0 1-27.904-27.70432V166.08256A89.6768 89.6768 0 0 1 176.90624 76.8h203.93984a89.67168 89.67168 0 0 1 89.85088 89.28256v174.32576a27.89888 27.89888 0 0 1-55.808 0V166.08256a33.99168 33.99168 0 0 0-34.05824-33.8432H176.90624a33.99168 33.99168 0 0 0-34.06336 33.8432v468.74112a27.80672 27.80672 0 0 1-27.89888 27.70432z" fill="#FD9A16" p-id="13806"></path>
    <path d="M867.01056 570.49088h-125.90592l96.31232-96.3328a89.43104 89.43104 0 0 0 0-126.464l-143.49312-143.52896a89.47712 89.47712 0 0 0-126.464 0l-364.11904 364.23168c-0.65024 0.65024-1.13664 1.39776-1.71008 2.09408h-34.39104A80.31744 80.31744 0 0 0 87.04 650.72128v221.3632A80.31744 80.31744 0 0 0 167.23968 952.32h699.77088a80.31744 80.31744 0 0 0 80.21504-80.2304v-221.36832a80.31744 80.31744 0 0 0-80.21504-80.2304zM606.72 243.42528a33.94048 33.94048 0 0 1 47.93856 0l143.488 143.53408a33.8944 33.8944 0 0 1 0 47.93856l-135.55712 135.59808H279.75168z m284.97408 628.6592a24.7296 24.7296 0 0 1-24.69888 24.704H167.23968a24.72448 24.72448 0 0 1-24.69888-24.704v-221.3632a24.72448 24.72448 0 0 1 24.69888-24.704h699.77088a24.7296 24.7296 0 0 1 24.69888 24.704v221.3632zM275.1744 717.89568a46.22848 46.22848 0 1 0 46.21312 46.22848 46.21824 46.21824 0 0 0-46.21312-46.22848z" fill="#2966C1" p-id="13807"></path>
</svg>