<svg t="1624449805803" class="icon" viewBox="0 0 1024 1024" version="1.1" xmlns="http://www.w3.org/2000/svg" p-id="18609" width="16" height="16"><path d="M512 329.728m-201.728 0a201.728 201.728 0 1 0 403.456 0 201.728 201.728 0 1 0-403.456 0Z" fill="#CCDAFF" p-id="18610"></path><path d="M819.2 761.856c0 15.872-2.56 31.232-14.336 45.568-43.008 51.712-157.696 89.088-292.864 89.088-134.656 0-249.856-36.864-292.864-89.088-11.776-14.336-14.336-29.696-14.336-45.568 0-15.872 2.56-31.232 14.336-45.568 43.008-51.712 157.696-89.088 292.864-89.088 134.656 0 249.856 36.864 292.864 89.088 11.776 13.824 14.336 29.184 14.336 45.568z" fill="#50b5ff" p-id="18611" data-spm-anchor-id="a313x.7781069.0.i4" class=""></path></svg>