<?xml version="1.0" standalone="no"?><!DOCTYPE svg PUBLIC "-//W3C//DTD SVG 1.1//EN" "http://www.w3.org/Graphics/SVG/1.1/DTD/svg11.dtd"><svg t="1600744542833" class="icon" viewBox="0 0 1024 1024" version="1.1" xmlns="http://www.w3.org/2000/svg" p-id="4926" xmlns:xlink="http://www.w3.org/1999/xlink" width="200" height="200"><defs><style type="text/css"></style></defs><path d="M878.93 87.83c-0.99-2.33-2.2-4.54-3.6-6.62a39.437 39.437 0 0 0-10.54-10.54c-6.22-4.21-13.7-6.68-21.74-6.68h-662.1C159.52 64 142 81.53 142 102.96V921.04c0 5.36 1.09 10.47 3.07 15.13 0.99 2.33 2.2 4.54 3.6 6.62 2.81 4.15 6.39 7.73 10.54 10.54 6.22 4.21 13.7 6.68 21.74 6.68H843.06c8.03 0 15.52-2.47 21.74-6.68 4.15-2.81 7.73-6.39 10.54-10.54 1.4-2.07 2.61-4.29 3.6-6.62 1.98-4.66 3.07-9.77 3.07-15.13V102.96a38.77 38.77 0 0 0-3.08-15.13z" fill="#65B0FF" p-id="4927"></path><path d="M637.58 326.96H250.11c-0.55 0-1-0.45-1-1v-56.43c0-0.55 0.45-1 1-1h387.47c0.55 0 1 0.45 1 1v56.43c0 0.55-0.45 1-1 1zM481.79 473.04H250.11c-0.55 0-1-0.45-1-1v-56.43c0-0.55 0.45-1 1-1h231.68c0.55 0 1 0.45 1 1v56.43c0 0.55-0.45 1-1 1z" fill="#FFFFFF" p-id="4928"></path></svg>