<svg t="1606548122608" class="icon" viewBox="0 0 1024 1024" version="1.1" xmlns="http://www.w3.org/2000/svg" p-id="19578" width="16" height="16"><path d="M512.141 962.492c-248.6 0-450.132-201.532-450.132-450.132S263.542 62.228 512.141 62.228 962.273 263.76 962.273 512.36 760.741 962.492 512.141 962.492z m0-818.422c-203.402 0-368.29 164.887-368.29 368.29s164.887 368.29 368.29 368.29 368.29-164.887 368.29-368.29-164.887-368.29-368.29-368.29z m163.685 409.211h-93.194c-14.175 24.36-40.275 40.921-70.491 40.921-45.201 0-81.842-36.641-81.842-81.842 0-30.216 16.561-56.316 40.921-70.491V266.833c0-22.601 18.32-40.921 40.921-40.921s40.921 18.32 40.921 40.921v175.036a82.974 82.974 0 0 1 29.741 29.57h93.022c22.601 0 40.921 18.32 40.921 40.921 0.001 22.601-18.32 40.921-40.92 40.921z" p-id="19579" data-spm-anchor-id="a313x.7781069.0.i60" class="selected" fill="#555555"></path></svg>