<?xml version="1.0" standalone="no"?><!DOCTYPE svg PUBLIC "-//W3C//DTD SVG 1.1//EN" "http://www.w3.org/Graphics/SVG/1.1/DTD/svg11.dtd"><svg t="1628157194897" class="icon" viewBox="0 0 1024 1024" version="1.1" xmlns="http://www.w3.org/2000/svg" p-id="2751" xmlns:xlink="http://www.w3.org/1999/xlink" width="200" height="200"><defs><style type="text/css"></style></defs><path d="M755.9 77.1H268.1c-112 0-203.2 91.2-203.2 203.2v325.1c0 112 91.2 203.2 203.2 203.2h124.1L512 946.9l119.8-138.3h124.1c112 0 203.2-91.2 203.2-203.2V280.3c0-112.1-91.2-203.2-203.2-203.2z m121.9 528.3c0 67.2-54.7 121.9-121.9 121.9H594.6L512 822.8l-82.6-95.4H268.1c-67.2 0-121.9-54.7-121.9-121.9V280.3c0-67.2 54.7-121.9 121.9-121.9h487.7c67.2 0 121.9 54.7 121.9 121.9v325.1z" fill="#333333" p-id="2752"></path><path d="M527.5 253.5c-84.4-3.9-134.4 33.8-150 113l56.5 13.6c11.7-51.9 40.2-77.9 85.7-77.9 37.7 2.6 58.4 22.1 62.3 58.4 1.3 26-16.2 52-52.6 77.9-35.1 23.4-52 53.9-50.7 91.6v19.5h52.6V534c-1.3-27.3 13-50.7 42.9-70.1 50.7-31.2 74.7-67.5 72.1-109.1-7.8-63.6-47.4-97.4-118.8-101.3zM472.9 596.4h64.3v62.3h-64.3z" fill="#333333" p-id="2753"></path></svg>