<svg t="1600001416929" class="icon" viewBox="0 0 1024 1024" version="1.1" xmlns="http://www.w3.org/2000/svg" p-id="20986" width="18" height="18"><path d="M883.2 484.5056a38.4 38.4 0 0 0 0 76.8c34.7136 0 64 24.576 64 53.76v276.48c0 29.1328-29.2864 53.76-64 53.76H140.8c-34.7136 0-64-24.576-64-53.76v-276.48c0-29.1328 29.2864-53.76 64-53.76a38.4 38.4 0 0 0 0-76.8c-77.6704 0-140.8 58.5728-140.8 130.56v276.48c0 71.9872 63.1296 130.56 140.8 130.56h742.4c77.6704 0 140.8-58.5728 140.8-130.56v-276.48c0-71.9872-63.1808-130.56-140.8-130.56z" fill="#438CFF" p-id="20987"></path><path d="M512 861.696a38.4 38.4 0 0 0 29.696-14.0288c29.7984-36.352 291.2256-359.7824 291.2256-524.8a38.4 38.4 0 0 0-76.8 0c0 103.5776-155.904 325.4272-244.1728 438.8352C423.68 648.2944 267.776 426.4448 267.776 322.8672a244.48 244.48 0 0 1 244.1728-244.1728c69.4784 0 135.936 29.7472 182.272 81.664a38.4 38.4 0 0 0 57.344-51.0976A321.28 321.28 0 0 0 512 1.8944a321.3824 321.3824 0 0 0-320.9728 320.9728c0 165.0176 261.4272 488.448 291.2256 524.8a38.4512 38.4512 0 0 0 29.7472 14.0288z" fill="#438CFF" p-id="20988"></path><path d="M346.2656 323.4304a165.888 165.888 0 0 0 165.6832 165.6832 165.888 165.888 0 0 0 165.7344-165.6832A165.888 165.888 0 0 0 511.9488 157.696a165.888 165.888 0 0 0-165.6832 165.7344z m254.6688 0c0 48.9984-39.8848 88.8832-88.9344 88.8832a88.9856 88.9856 0 0 1-88.8832-88.8832c0-49.0496 39.8848-88.9344 88.8832-88.9344a88.9856 88.9856 0 0 1 88.9344 88.9344z" fill="#438CFF" p-id="20989"></path></svg>