<?xml version="1.0" standalone="no" ?>
<!DOCTYPE svg PUBLIC "-//W3C//DTD SVG 1.1//EN" "http://www.w3.org/Graphics/SVG/1.1/DTD/svg11.dtd">
<svg t="1622910712916" class="icon" viewBox="0 0 1024 1024" version="1.1" xmlns="http://www.w3.org/2000/svg" p-id="981" xmlns:xlink="http://www.w3.org/1999/xlink" width="48" height="48">
  <defs>
    <style type="text/css"></style>
  </defs>
  <path d="M588.1344 918.0672c-11.776 0-23.4496-3.7888-33.28-11.264l-180.992-137.0112H160.4608c-52.5312 0-95.2832-42.752-95.2832-95.2832V368.4352c0-52.5312 42.752-95.2832 95.2832-95.2832h213.3504l180.992-137.0112c16.8448-12.7488 39.0656-14.848 57.9584-5.4272 18.8928 9.4208 30.6688 28.3648 30.6688 49.5104v682.5984c0 21.1456-11.7248 40.0896-30.6688 49.5104-7.8336 3.84-16.2304 5.7344-24.6272 5.7344zM160.4608 334.592c-18.6368 0-33.8432 15.1552-33.8432 33.8432v306.1248c0 18.6368 15.1552 33.8432 33.8432 33.8432h223.6928c6.7072 0 13.2096 2.2016 18.5344 6.2464l179.3024 135.7824V192.6144L402.688 328.3456a30.63296 30.63296 0 0 1-18.5344 6.2464H160.4608z m431.4624-149.504z m0 0z m-18.5344-24.4736z" p-id="982" data-spm-anchor-id="a313x.7781069.0.i6" class="selected"></path>
  <path d="M733.9008 662.6304a30.72 30.72 0 0 1-21.7088-52.4288c54.1184-54.1184 54.1184-142.1824 0-196.352a30.72 30.72 0 0 1 0-43.4176 30.72 30.72 0 0 1 43.4176 0c78.08 78.08 78.08 205.1072 0 283.1872a30.49984 30.49984 0 0 1-21.7088 9.0112z" p-id="983" data-spm-anchor-id="a313x.7781069.0.i5" class="selected"></path>
  <path d="M842.4448 771.1232a30.72 30.72 0 0 1-21.7088-52.4288c113.9712-113.9712 113.9712-299.3664 0-413.3376a30.72 30.72 0 0 1 0-43.4176 30.72 30.72 0 0 1 43.4176 0c137.9328 137.8816 137.9328 362.2912 0 500.224a30.83776 30.83776 0 0 1-21.7088 8.96z" p-id="984" data-spm-anchor-id="a313x.7781069.0.i4" class="selected"></path>
</svg>