<?xml version="1.0" standalone="no" ?>
<!DOCTYPE svg PUBLIC "-//W3C//DTD SVG 1.1//EN" "http://www.w3.org/Graphics/SVG/1.1/DTD/svg11.dtd">
<svg t="1622910919776" class="icon" viewBox="0 0 1024 1024" version="1.1" xmlns="http://www.w3.org/2000/svg" p-id="1550" xmlns:xlink="http://www.w3.org/1999/xlink" width="48" height="48">
  <defs>
    <style type="text/css"></style>
  </defs>
  <path d="M385.7408 704.4096c-7.424 0-14.9504-1.6384-22.0672-4.9152-18.688-8.6528-30.3104-26.8288-30.3104-47.4112V374.016c0-20.5824 11.6224-38.7584 30.3104-47.4112 18.688-8.6528 40.0384-5.7344 55.7568 7.5776l163.6352 139.008c11.6736 9.9328 18.3808 24.4224 18.3808 39.7824s-6.7072 29.8496-18.432 39.7824l-163.584 139.008c-9.728 8.3456-21.6064 12.6464-33.6896 12.6464z m9.0624-310.4256v238.1824l140.1344-119.0912-140.1344-119.0912z m148.3776 126.0544c0.0512 0.0512 0.0512 0.0512 0 0z" p-id="1551" data-spm-anchor-id="a313x.7781069.0.i15" class="selected"></path>
  <path d="M654.1312 714.496c-16.9472 0-30.72-13.7728-30.72-30.72v-343.552c0-16.9472 13.7728-30.72 30.72-30.72s30.72 13.7728 30.72 30.72v343.552c0 16.9984-13.7728 30.72-30.72 30.72z" p-id="1552" data-spm-anchor-id="a313x.7781069.0.i14" class="selected"></path>
  <path d="M512 941.9776c-237.1584 0-430.08-192.9216-430.08-430.08s192.9216-430.08 430.08-430.08 430.08 192.9216 430.08 430.08-192.9216 430.08-430.08 430.08z m0-798.72c-203.264 0-368.64 165.376-368.64 368.64s165.376 368.64 368.64 368.64 368.64-165.376 368.64-368.64-165.376-368.64-368.64-368.64z" p-id="1553" data-spm-anchor-id="a313x.7781069.0.i16" class="selected"></path>
</svg>