<?xml version="1.0" standalone="no" ?>
<!DOCTYPE svg PUBLIC "-//W3C//DTD SVG 1.1//EN" "http://www.w3.org/Graphics/SVG/1.1/DTD/svg11.dtd">
<svg t="1622911154433" class="icon" viewBox="0 0 1024 1024" version="1.1" xmlns="http://www.w3.org/2000/svg" p-id="2383" xmlns:xlink="http://www.w3.org/1999/xlink" width="48" height="48">
  <defs>
    <style type="text/css"></style>
  </defs>
  <path d="M518.2976 942.2336c-237.1584 0-430.08-192.9216-430.08-430.08s192.9216-430.08 430.08-430.08 430.08 192.9216 430.08 430.08-192.9216 430.08-430.08 430.08z m0-798.72c-203.264 0-368.64 165.376-368.64 368.64s165.376 368.64 368.64 368.64 368.64-165.376 368.64-368.64-165.376-368.64-368.64-368.64z" p-id="2384" data-spm-anchor-id="a313x.7781069.0.i27" class="selected"></path>
  <path d="M415.0272 695.2448c-16.9472 0-30.72-13.7728-30.72-30.72V359.8336c0-16.9472 13.7728-30.72 30.72-30.72s30.72 13.7728 30.72 30.72v304.6912c0 16.9472-13.7728 30.72-30.72 30.72zM621.1584 695.2448c-16.9472 0-30.72-13.7728-30.72-30.72V359.8336c0-16.9472 13.7728-30.72 30.72-30.72s30.72 13.7728 30.72 30.72v304.6912c0 16.9472-13.7728 30.72-30.72 30.72z" p-id="2385" data-spm-anchor-id="a313x.7781069.0.i28" class="selected"></path>
</svg>