<?xml version="1.0" standalone="no" ?>
<!DOCTYPE svg PUBLIC "-//W3C//DTD SVG 1.1//EN" "http://www.w3.org/Graphics/SVG/1.1/DTD/svg11.dtd">
<svg t="1622911318478" class="icon" viewBox="0 0 1024 1024" version="1.1" xmlns="http://www.w3.org/2000/svg" p-id="2800" xmlns:xlink="http://www.w3.org/1999/xlink" width="48" height="48">
  <defs>
    <style type="text/css"></style>
  </defs>
  <path d="M828.0576 871.2704a30.6944 30.6944 0 0 1-22.5792-51.5072l77.2608-83.968-75.776-71.6288c-12.3392-11.6736-12.8512-31.0784-1.2288-43.4176s31.1296-12.8512 43.4176-1.2288l97.792 92.4672c12.1856 11.52 12.9024 30.7712 1.4848 43.1104l-97.792 106.2912a30.60224 30.60224 0 0 1-22.5792 9.8816z" p-id="2801" data-spm-anchor-id="a313x.7781069.0.i36" class="selected"></path>
  <path d="M863.8976 712.6016c-195.2768 36.352-277.1456-156.7232-280.5248-164.864-0.6656-1.6896-1.536-3.328-2.5088-4.9152-0.1024-0.1536-3.84-6.0416-13.8752-22.3744 10.0352-16.3328 13.7728-22.2208 13.8752-22.3744 0.9728-1.536 1.8432-3.1744 2.5088-4.9152 0.2048-0.512 21.0432-51.0464 66.9184-97.2288 59.7504-60.1088 131.6352-82.8928 213.6064-67.6352 16.6912 3.072 32.7168-7.8848 35.84-24.576a30.72 30.72 0 0 0-24.576-35.84c-101.7344-18.8928-194.5088 10.3936-268.3904 84.736-42.5984 42.9056-67.072 88.9856-76.1856 108.2368-11.7248-19.2512-25.856-42.5984-42.9568-70.912C406.8864 256.3584 260.096 257.9968 246.1184 258.5088h-154.624c-16.9472 0-30.72 13.7728-30.72 30.72s13.7728 30.72 30.72 30.72h155.1872c0.512 0 0.9728 0 1.4848-0.0512 1.1776-0.0512 122.5728-4.5568 186.88 101.7856 26.368 43.6736 45.7728 75.6224 59.904 98.7136-14.1312 23.0912-33.536 55.04-59.904 98.7136-63.6928 105.472-181.9648 101.9904-186.88 101.7856-0.512 0-0.9728-0.0512-1.4848-0.0512H91.4944c-16.9472 0-30.72 13.7728-30.72 30.72s13.7728 30.72 30.72 30.72h154.5728c0.9728 0.0512 2.56 0.0512 4.6592 0.0512 29.1328 0 161.6384-7.0656 236.8-131.5328 17.1008-28.3136 31.2832-51.6608 42.9568-70.912 9.1136 19.2512 33.536 65.3312 76.1856 108.2368 59.2896 59.6992 130.816 90.3168 209.3056 90.3168 19.3024 0 39.0144-1.8432 59.0848-5.5808a30.72 30.72 0 0 0 24.576-35.84c-3.0208-16.5376-19.0464-27.4944-35.7376-24.4224z" p-id="2802" data-spm-anchor-id="a313x.7781069.0.i34" class="selected"></path>
  <path d="M828.0576 429.824a30.6176 30.6176 0 0 1-22.3232-9.6256 30.67904 30.67904 0 0 1 1.2288-43.4176l75.776-71.6288-77.2608-83.968a30.79168 30.79168 0 0 1 1.792-43.4176c12.4928-11.52 31.9488-10.6496 43.4176 1.792l97.792 106.2912c11.3664 12.3904 10.7008 31.5904-1.4848 43.1104l-97.792 92.4672a30.72512 30.72512 0 0 1-21.1456 8.3968z" p-id="2803" data-spm-anchor-id="a313x.7781069.0.i35" class="selected"></path>
</svg>