<svg t="1600084899948" class="icon" viewBox="0 0 1024 1024" version="1.1" xmlns="http://www.w3.org/2000/svg" p-id="3933" width="200" height="200"><path d="M836.8 551.2L462 176.4c-32.3-32.3-84.8-32.3-117 0-32.3 32.3-32.3 84.8 0 117L671.5 620c10.3 10.3 10.3 27.1 0 37.4-10.3 10.3-27.1 10.3-37.4 0L307.6 330.8c-52.9-52.9-52.9-139 0-191.8 26.4-26.4 61.2-39.7 95.9-39.7s69.5 13.2 95.9 39.7l374.8 374.8M403.5 99.3" fill="#2197EF" p-id="3934"></path><path d="M818.1 532.5L475.8 874.9c-42.6 42.6-111.8 42.6-154.4 0-42.7-42.6-42.7-111.8 0-154.4l342.4-342.4" fill="#CEE8FA" p-id="3935"></path><path d="M645 359.4L307.6 696.8c-52.9 52.9-52.9 139 0 191.8 25.6 25.6 59.7 39.7 95.9 39.7s70.3-14.1 95.9-39.7l337.4-337.4m0-74.8L820 493.2l-20.6 20.6L462 851.2c-15.6 15.6-36.4 24.2-58.5 24.2s-42.9-8.6-58.5-24.2c-32.3-32.3-32.3-84.8 0-117l337.4-337.4 19.9-19.9 17.5-17.5" fill="#2197EF" p-id="3936"></path></svg>