<svg t="1600001160907" class="icon" viewBox="0 0 1024 1024" version="1.1" xmlns="http://www.w3.org/2000/svg" p-id="12418" width="20" height="20">
    <path d="M769.6 196.8l-32 32-11.2-11.2a33.6 33.6 0 0 0-46.4 0l-81.6 81.6a32 32 0 0 0-8 32l-17.6 17.6-9.6-9.6L464 240l-32-32h-1.6l-6.4-4.8h-1.6l-4.8-3.2a54.4 54.4 0 0 0-62.4 9.6l-6.4 6.4-92.8 92.8-78.4 75.2a54.4 54.4 0 0 0-16 36.8 48 48 0 0 0 12.8 38.4l128 128 14.4 14.4-16 16a40 40 0 0 0-8 46.4A33.6 33.6 0 0 1 288 704l-9.6 9.6a78.4 78.4 0 0 0-9.6 155.2h8a78.4 78.4 0 0 0 78.4-80l9.6-9.6a33.6 33.6 0 0 1 38.4-6.4 40 40 0 0 0 46.4-8l89.6-89.6a72 72 0 0 1 28.8 20.8l124.8 150.4a83.2 83.2 0 0 0 59.2 24 105.6 105.6 0 0 0 102.4-96 83.2 83.2 0 0 0-24-65.6l-153.6-128a72 72 0 0 1-20.8-24l78.4-78.4h9.6a32 32 0 0 0 24-9.6l80-81.6a33.6 33.6 0 0 0 0-46.4l-11.2-11.2 32-32a70.4 70.4 0 1 0-99.2-99.2z m-176 176l16-16 100.8 100.8-60.8 60.8a72 72 0 0 1 1.6-12.8l8-35.2a51.2 51.2 0 0 0-12.8-48l-51.2-51.2zM326.4 566.4l-28.8-28.8a16 16 0 0 0 12.8-11.2l25.6-83.2 64 4.8a16 16 0 0 0 16-17.6l-4.8-43.2h33.6a16 16 0 0 0 16-16l4.8-81.6 73.6 73.6 33.6 33.6-203.2 212.8z m99.2 176a8 8 0 0 1-9.6 1.6 65.6 65.6 0 0 0-75.2 12.8l-14.4 14.4a16 16 0 0 0-4.8 12.8 46.4 46.4 0 1 1-84.8-19.2 46.4 46.4 0 0 1 44.8-20.8 16 16 0 0 0 12.8-4.8l14.4-14.4a65.6 65.6 0 0 0 12.8-75.2 8 8 0 0 1 1.6-9.6l16-16 12.8 12.8a16 16 0 0 0 4.8 8l6.4 3.2 25.6 25.6a51.2 51.2 0 0 0 35.2 14.4l16-3.2 44.8-14.4 9.6-3.2z m380.8-11.2a51.2 51.2 0 0 1 14.4 40A70.4 70.4 0 0 1 800 816c-25.6 25.6-64 28.8-84.8 8l-124.8-148.8a104 104 0 0 0-41.6-30.4h-1.6a16 16 0 0 0-17.6-3.2 104 104 0 0 0-52.8 3.2l-44.8 14.4a19.2 19.2 0 0 1-19.2-4.8l-20.8-20.8 203.2-212.8 25.6 25.6a19.2 19.2 0 0 1 4.8 17.6l-8 35.2a104 104 0 0 0 35.2 104z" fill="#0084FF" p-id="12419"></path>
    <path d="M760 816a40 40 0 0 0 28.8-68.8 41.6 41.6 0 0 0-56 0 40 40 0 0 0 27.2 68.8z m-6.4-46.4h11.2a8 8 0 0 1 0 11.2h-11.2a8 8 0 0 1 0-11.2z" fill="#0084FF" p-id="12420"></path>
</svg>