<?xml version="1.0" standalone="no"?><!DOCTYPE svg PUBLIC "-//W3C//DTD SVG 1.1//EN" "http://www.w3.org/Graphics/SVG/1.1/DTD/svg11.dtd"><svg t="1629197409804" class="icon" viewBox="0 0 1024 1024" version="1.1" xmlns="http://www.w3.org/2000/svg" p-id="3758" xmlns:xlink="http://www.w3.org/1999/xlink" width="200" height="200"><defs><style type="text/css"></style></defs><path d="M772 956.7c-16.9 0-33.8-4.1-49.5-12.2L523.8 840.7c-7.4-3.8-16.2-3.8-23.5 0L301.5 944.4c-33.4 17.5-72.6 16.2-104.9-3.4-32.2-19.5-51.5-53.7-51.5-91.4V174.2c0-59 48-106.9 106.9-106.9h519.9c59 0 106.9 48 106.9 106.9v675.4c0 37.7-19.2 71.9-51.5 91.4-17.1 10.4-36.2 15.7-55.3 15.7zM512 756.4c17 0 34 4 49.5 12.1l198.7 103.7c11.4 6 21.3 1.4 24.9-0.8 3.7-2.2 12.2-8.8 12.2-21.7V174.2c0-14-11.4-25.4-25.4-25.4H252.1c-14 0-25.4 11.4-25.4 25.4v675.4c0 12.9 8.6 19.5 12.2 21.7 3.7 2.2 13.5 6.8 24.9 0.8l198.7-103.7c15.5-8 32.5-12 49.5-12z" fill="#686868" p-id="3759"></path><path d="M436 432.4h-25.2c-54.6 0-99.1-44.4-99.1-99.1v-266H535v266c0 54.7-44.4 99.1-99 99.1z m-42.7-283.5v184.5c0 9.5 8 17.6 17.6 17.6H436c9.5 0 17.6-8 17.6-17.6V148.9h-60.3z" fill="#2BA8FC" p-id="3760"></path></svg>