<?xml version="1.0" standalone="no"?><!DOCTYPE svg PUBLIC "-//W3C//DTD SVG 1.1//EN" "http://www.w3.org/Graphics/SVG/1.1/DTD/svg11.dtd"><svg t="1623159780752" class="icon" viewBox="0 0 1024 1024" version="1.1" xmlns="http://www.w3.org/2000/svg" p-id="11954" width="16" height="16" xmlns:xlink="http://www.w3.org/1999/xlink"><defs><style type="text/css"></style></defs><path d="M49.594182 440.017455l-1.256727 1.233454 1.256727-1.233454z m-1.256727 1.233454l1.256727-1.233454 0.558545-0.558546H46.545455V160.512a43.659636 43.659636 0 0 1 12.916363-31.208727A44.055273 44.055273 0 0 1 90.670545 116.363636h278.94691v3.607273V116.363636h161.093818v3.607273l1.815272-1.815273 420.165819 420.165819a84.526545 84.526545 0 0 1 0 119.528727l-203.589819 203.566545a84.247273 84.247273 0 0 1-59.764363 24.762182 84.293818 84.293818 0 0 1-59.764364-24.762182l-20.759273-20.759272-20.782545 20.782545a84.037818 84.037818 0 0 1-59.764364 24.738909 84.293818 84.293818 0 0 1-59.764363-24.738909L48.337455 441.274182zM658.152727 791.272727l20.782546 20.782546a14.359273 14.359273 0 0 0 10.379636 4.305454 14.475636 14.475636 0 0 0 10.402909-4.305454l203.589818-203.589818A14.429091 14.429091 0 0 0 907.636364 598.109091a14.452364 14.452364 0 0 0-4.282182-10.379636L501.806545 186.181818h-62.370909l-6.795636-6.818909 6.795636 6.818909 352.162909 352.139637a84.526545 84.526545 0 0 1 0 119.528727L658.176 791.272727zM371.432727 118.155636l-0.558545 0.535273 0.535273-0.535273zM50.501818 142.149818z m477.742546 744.029091zM202.309818 272.128a63.371636 63.371636 0 1 0 89.646546 89.693091 63.371636 63.371636 0 0 0-89.646546-89.693091z" fill="#ffffff" p-id="11955"></path></svg>