<?xml version="1.0" standalone="no"?><!DOCTYPE svg PUBLIC "-//W3C//DTD SVG 1.1//EN" "http://www.w3.org/Graphics/SVG/1.1/DTD/svg11.dtd"><svg t="1628090059224" class="icon" viewBox="0 0 1024 1024" version="1.1" xmlns="http://www.w3.org/2000/svg" p-id="5773" xmlns:xlink="http://www.w3.org/1999/xlink" width="200" height="200"><defs><style type="text/css"></style></defs><path d="M512 512m-512 0a512 512 0 1 0 1024 0 512 512 0 1 0-1024 0Z" fill="#E9F4FF" p-id="5774"></path><path d="M245.3248 582.4512C186.112 538.88 153.6 484.352 153.6 421.12 153.6 299.3408 274.432 204.8 421.2992 204.8c130.1504 0 245.3504 74.24 269.2352 177.3056l8.0896 34.8928-35.6096-3.6352a203.1872 203.1872 0 0 0-20.8128-1.2032c-101.0688 0-180.1728 68.5056-180.224 151.8848 0 13.0048 2.1504 26.0608 6.3232 39.3984l9.728 30.9504-32.384 2.2272a293.632 293.632 0 0 1-70.4768-2.9184 659.6096 659.6096 0 0 1-20.0704-3.456l-15.2064-2.8672-132.7872 61.6192 38.2208-106.5472zM421.2992 256C300.3392 256 204.8 330.752 204.8 421.12c0 49.7664 28.7488 93.3632 85.1968 129.9456l17.024 11.0336-10.368 28.9024 36.48-16.9216 7.9872 1.4592 3.072 0.5632 20.2752 3.7888c7.424 1.3824 13.0816 2.3808 18.5344 3.2256 10.5472 1.6128 19.9168 2.6112 29.2352 3.0208a173.0304 173.0304 0 0 1-1.4336-22.0928c0.0512-109.312 96.1536-196.5312 217.5488-202.752C595.456 300.032 513.792 256 421.2992 256z" fill="#000000" p-id="5775"></path><path d="M760.0384 695.2448C798.5152 665.7024 819.2 632.8832 819.2 602.8032 819.2 541.824 754.7648 486.4 678.5024 486.4 598.4768 486.4 537.6 539.8528 537.6 602.8032c0 63.104 60.8 116.3776 140.9024 116.3776 13.056 0 25.8304-2.432 55.04-9.9328l12.3904-3.1744 14.08-10.8288zM870.4 602.8032c0 52.0704-33.8176 98.2016-79.1808 133.0432L808.2176 793.6l-61.952-34.7392c-22.5792 5.7856-45.2608 11.52-67.7632 11.52-107.4688 0-192.1024-75.008-192.1024-167.5776C486.4 510.464 571.008 435.2 678.5024 435.2 780.0064 435.2 870.4 510.464 870.4 602.8032z" fill="#2394FB" p-id="5776"></path><path d="M611.5328 588.8c-11.264 0-22.7328-12.672-22.7328-25.6 0-12.7488 11.4432-25.6 22.7328-25.6 17.2544 0 28.4672 12.8512 28.4672 25.6 0 12.928-11.2128 25.6-28.4672 25.6zM739.456 588.8c-11.2128 0-22.656-12.672-22.656-25.6 0-12.7488 11.392-25.6 22.656-25.6 17.152 0 28.544 12.8512 28.544 25.6 0 12.928-11.392 25.6-28.544 25.6z" fill="#2C99FC" p-id="5777"></path><path d="M335.2064 384C321.2544 384 307.2 373.7344 307.2 358.4c0-15.4368 14.0544-25.6 28.0064-25.6 13.9264 0 23.1936 10.1376 23.1936 25.6 0 15.3344-9.2672 25.6-23.1936 25.6zM488.8064 384C474.8544 384 460.8 373.7344 460.8 358.4c0-15.4368 14.0544-25.6 28.0064-25.6 13.9264 0 23.1936 10.1376 23.1936 25.6 0 15.3344-9.2672 25.6-23.1936 25.6z" fill="#000000" p-id="5778"></path></svg>