<svg t="1600000762772" class="icon" viewBox="0 0 1032 1024" version="1.1" xmlns="http://www.w3.org/2000/svg" p-id="2886" width="20" height="20"><path d="M718.2035 940.112c-123.273 0-223.5015-100.1745-223.5015-223.5015 0-123.3675 100.1745-223.524 223.5015-223.524 123.3495 0 223.524 100.1565 223.524 223.524 0 123.327-100.1925 223.5015-223.524 223.5015z" fill="#6799FF" p-id="2887"></path><path d="M854.153 490.7915H141.6365c-21.456 0-37.935-11.538-46.152-31.3515-8.2755-19.7595-3.3165-39.573 11.52-54.3915l128.655-113.814c6.597-6.579 18.1755-4.941 24.7365 1.6605 6.6375 6.597 4.977 18.117-1.6605 24.714L130.0985 431.4005c-6.597 6.597-3.2805 14.8365-3.2805 16.515 0 1.6425 4.941 9.9 14.8185 9.9h714.1545c9.8775 0 14.8185-8.2575 14.8185-9.9 1.6605-1.6785 3.3165-9.918-3.2805-18.1575L511.082 116.4455c-8.2395-8.2575-18.135-6.597-24.7365 0L375.812 213.7265c-6.597 6.597-18.135 4.941-24.696-1.6605-6.6375-6.597-4.977-18.135 1.62-24.7365L461.6135 90.0485c9.918-9.918 23.094-14.8545 36.2925-14.8545 13.1805 0 26.3745 4.941 36.2745 14.8545l356.265 313.317c14.8005 14.8365 19.7595 36.3105 11.5245 56.07-8.226 18.1575-26.379 31.356-47.817 31.356z" fill="#073A77" p-id="2888"></path><path d="M281.888 287.909c-4.941 0-9.918-1.62-13.1985-4.9365-6.597-6.579-4.941-18.1395 1.6605-24.7185l44.4915-39.591c6.6375-6.6015 18.135-4.977 24.7725 1.6605 6.597 6.561 4.941 18.0945-1.6605 24.696l-44.568 39.6315c-3.2805 1.638-6.561 3.258-11.4975 3.258z m545.8725 661.3695h-230.913c-9.918 0-16.497-8.2575-16.497-16.497V751.355H417.023v181.422c0 9.8955-8.2575 16.497-16.479 16.497H169.6715c-9.918 0-16.515-8.2575-16.515-16.497V520.46c0-9.8775 8.2215-16.479 16.515-16.479 8.2215 0 16.479 8.2395 16.479 16.479v395.8425h196.2585v-181.4445c0-9.8775 8.2215-16.4745 16.479-16.4745h197.9595c9.9 0 16.479 8.217 16.479 16.4745v181.4445h196.2585V520.46c0-9.8775 8.298-16.479 16.515-16.479 8.28 0 16.515 8.2395 16.515 16.479v412.317c1.6425 9.9-4.959 16.5015-14.8545 16.5015z" fill="#073A77" p-id="2889"></path><path d="M600.1865 635.921H402.2855c-9.918 0-16.515-8.2215-16.515-16.479 0-8.217 8.2215-16.515 16.515-16.515h197.901c9.8775 0 16.4565 8.298 16.4565 16.515 0 8.2575-6.579 16.479-16.4565 16.479zM478.1285 301.13c-4.959 0-11.556-3.2985-13.1985-8.2395-4.941-8.2395-1.6605-18.1575 4.959-21.456l56.052-33.012-56.052-39.555c-6.6195-4.977-8.2575-14.8185-3.3165-23.1165 4.977-6.561 14.8545-8.2575 23.1165-3.2805l77.5035 54.4095c4.941 3.3165 6.597 8.2575 6.597 13.2345 0 4.9005-3.3165 9.8415-8.2575 13.158l-77.526 46.215c-3.2805 1.6425-6.579 1.6425-9.8775 1.6425z" fill="#073A77" p-id="2890"></path></svg>