<?xml version="1.0" standalone="no"?><!DOCTYPE svg PUBLIC "-//W3C//DTD SVG 1.1//EN" "http://www.w3.org/Graphics/SVG/1.1/DTD/svg11.dtd"><svg t="1600744912800" class="icon" viewBox="0 0 1024 1024" version="1.1" xmlns="http://www.w3.org/2000/svg" p-id="12762" xmlns:xlink="http://www.w3.org/1999/xlink" width="200" height="200"><defs><style type="text/css"></style></defs><path d="M0 0h1024v1024H0z" fill="#FFFFFF" p-id="12763"></path><path d="M892.672 422.4a409.6 409.6 0 0 0-30.976-84.48 374.144 374.144 0 0 0-49.92-74.88 428.928 428.928 0 0 0-66.56-62.72 55.68 55.68 0 0 0-77.824 11.392 51.968 51.968 0 0 0-10.496 40.96A54.528 54.528 0 0 0 678.4 289.664a271.744 271.744 0 0 1 84.48 98.432 275.2 275.2 0 0 1 29.312 125.44 270.208 270.208 0 0 1-21.632 108.544 276.096 276.096 0 0 1-59.904 88.832 290.304 290.304 0 0 1-89.6 60.032 279.552 279.552 0 0 1-217.6 0 284.8 284.8 0 0 1-149.504-149.12 265.728 265.728 0 0 1-22.4-108.416 276.608 276.608 0 0 1 119.808-228.224 52.352 52.352 0 0 0 23.168-35.712 54.272 54.272 0 0 0-9.216-41.856 53.504 53.504 0 0 0-35.84-22.272 55.552 55.552 0 0 0-41.856 9.216A384 384 0 0 0 217.6 257.792a417.664 417.664 0 0 0-52.48 76.16 374.4 374.4 0 0 0-33.28 86.656 391.04 391.04 0 0 0-11.392 92.8A377.472 377.472 0 0 0 151.424 665.6 395.008 395.008 0 0 0 359.68 872.704a390.016 390.016 0 0 0 304.64 0 406.272 406.272 0 0 0 124.672-83.584A392.448 392.448 0 0 0 872.96 665.6a389.376 389.376 0 0 0 19.712-243.2z" fill="#0082FD" p-id="12764"></path><path d="M515.712 537.6a51.2 51.2 0 0 0 51.968-51.2V173.056a51.2 51.2 0 0 0-15.232-36.992 51.2 51.2 0 0 0-74.24 0 51.2 51.2 0 0 0-15.36 36.992V486.4a49.92 49.92 0 0 0 15.36 36.608A51.2 51.2 0 0 0 515.712 537.6z" fill="#ABE3FF" p-id="12765"></path></svg>