<?xml version="1.0" standalone="no" ?>
<!DOCTYPE svg PUBLIC "-//W3C//DTD SVG 1.1//EN" "http://www.w3.org/Graphics/SVG/1.1/DTD/svg11.dtd">
<svg t="1622910846369" class="icon" viewBox="0 0 1024 1024" version="1.1" xmlns="http://www.w3.org/2000/svg" p-id="1186" xmlns:xlink="http://www.w3.org/1999/xlink" width="48" height="48">
  <defs>
    <style type="text/css"></style>
  </defs>
  <path d="M643.2768 704.4096c-12.0832 0-23.9616-4.2496-33.6896-12.4928L445.952 552.9088a52.14208 52.14208 0 0 1-18.3808-39.7824c0-15.36 6.7072-29.8496 18.3808-39.7824l163.6352-139.008c15.6672-13.312 37.0176-16.2304 55.7056-7.5776 18.688 8.6528 30.3104 26.8288 30.3104 47.4112v278.0672c0 20.5824-11.6224 38.7584-30.3104 47.4112-7.0656 3.1232-14.592 4.7616-22.016 4.7616z m-149.248-191.3344l140.1344 119.0912V393.984l-140.1344 119.0912z m-8.2432 7.0144z" p-id="1187" data-spm-anchor-id="a313x.7781069.0.i8" class="selected"></path>
  <path d="M374.8864 714.496c-16.9472 0-30.72-13.7728-30.72-30.72v-343.552c0-16.9472 13.7728-30.72 30.72-30.72s30.72 13.7728 30.72 30.72v343.552c0 16.9984-13.7728 30.72-30.72 30.72z" p-id="1188" data-spm-anchor-id="a313x.7781069.0.i9" class="selected"></path>
  <path d="M517.0176 941.9776c-237.1584 0-430.08-192.9216-430.08-430.08s192.9216-430.08 430.08-430.08 430.08 192.9216 430.08 430.08-192.9728 430.08-430.08 430.08z m0-798.72c-203.264 0-368.64 165.376-368.64 368.64s165.376 368.64 368.64 368.64 368.64-165.376 368.64-368.64-165.376-368.64-368.64-368.64z" p-id="1189" data-spm-anchor-id="a313x.7781069.0.i10" class="selected"></path>
</svg>