<svg xmlns="http://www.w3.org/2000/svg" width="579" height="455"><g fill="none" fill-rule="evenodd"><path fill="none" d="M-30-89h640v640H-30z"/><g fill-rule="nonzero"><path fill="#F3F9FF" d="M251.432 154.715a24.006 24.006 0 0 1-10.305-19.712 24.008 24.008 0 0 1 10.3-19.717c15.255-10.602 22.268-21.828 16.644-35.407-5.624-13.577-18.519-16.557-36.8-13.268a24.006 24.006 0 0 1-21.224-6.65 24.008 24.008 0 0 1-6.659-21.227c3.29-18.284.312-31.18-13.267-36.805-13.58-5.625-24.806 1.39-35.408 16.644a24.005 24.005 0 0 1-39.429-.004C104.684 3.317 93.46-3.693 79.881 1.93 66.304 7.555 63.323 20.45 66.612 38.73a24.004 24.004 0 0 1-6.65 21.224 24.008 24.008 0 0 1-21.227 6.659C20.451 63.323 7.555 66.3 1.93 79.88c-5.624 13.578 1.39 24.805 16.644 35.406a24.005 24.005 0 0 1-.004 39.43c-15.252 10.6-22.264 21.826-16.64 35.403 5.624 13.578 18.522 16.558 36.805 13.267a24.002 24.002 0 0 1 21.229 6.654 24.012 24.012 0 0 1 6.648 21.23c-3.29 18.281-.309 31.176 13.268 36.8 13.579 5.624 24.805-1.389 35.407-16.645a24.005 24.005 0 0 1 39.429.004c10.6 15.252 21.826 22.264 35.403 16.64 13.577-5.624 16.557-18.52 13.268-36.8a24.009 24.009 0 0 1 6.651-21.226 24.004 24.004 0 0 1 21.226-6.659c18.284 3.29 31.181.312 36.807-13.267 5.625-13.577-1.386-24.803-16.638-35.403Z"/><ellipse cx="136.067" cy="136.601" fill="#DCEEFD" rx="70.968" ry="72.569"/><path fill="#FFF" d="M205.968 137.684c0 39.437-32.049 71.486-71.485 71.486-21.207 0-40.39-9.293-53.376-24.067 12.51 11.318 29.19 18.11 47.419 18.11 39.436 0 71.485-32.05 71.485-71.486 0-18.23-6.791-34.908-18.11-47.419 14.774 12.987 24.067 32.17 24.067 53.376Z"/><path fill="#D0E7FE" d="M188.893 88.098c-12.51-11.318-29.19-18.11-47.419-18.11-39.436 0-71.485 32.05-71.485 71.486 0 18.228 6.791 34.909 18.11 47.42-14.774-12.987-24.067-32.17-24.067-53.377 0-39.436 32.049-71.485 71.485-71.485 21.207 0 40.39 9.293 53.376 24.066Z"/></g><g fill-rule="nonzero"><path fill="#71E5CB" d="M358.462 378.825c-6-14.731-14.95-35.603 3.343-47.927 18.292-12.324 1.592-19.623.999-37.486-.594-17.863 18.078-22.454 17.52-30.924-.559-8.47-1.486-23.448.238-29.839 2.883-10.694 24.469-15.55 26.672 14.562 1.385 18.923 3.244 30.348 12.86 43.845 9.617 13.498-11.564 27.768-11.174 38.635.391 10.867 10.83 9.257 9.688 32.284-1.142 23.028-15.564 40.442-29.276 39.416-9.313-.7-25.393-9.12-30.87-22.566Z"/><path fill="#39B499" d="M404.709 300.97a.825.825 0 0 0-1.127.388c-.16.335-3.97 8.042-10.183 5.524.736-5.103 1.068-9.882.716-14.195.008-.03.027-.054.032-.086a.894.894 0 0 0-.086-.563 34.072 34.072 0 0 0-.29-2.25c-1.886-11.23-.618-25.764.138-34.446.442-5.065.642-7.546.387-8.597-.114-.473-.578-.76-1.018-.635-.449.118-.72.598-.605 1.068.195.804-.097 4.14-.432 8.002-.765 8.772-2.044 23.452-.12 34.914.063.366.104.744.153 1.119-2.682-.884-9.075-3.655-11.196-10.53-.14-.46-.612-.714-1.056-.564-.441.15-.68.645-.538 1.108 2.587 8.385 10.574 11.212 12.985 11.888.682 9.208-1.87 20.798-4.567 33.006-2.141 9.688-4.356 19.705-5.079 29.177-.317 4.149-.17 9.021.257 14.219-4.57-2.355-17.029-9.662-17.357-19.542-.015-.484-.425-.82-.867-.848-.463.018-.825.424-.808.911.39 11.758 15.412 19.702 19.203 21.522 1.237 13.057 4.13 27.885 6.272 38.863 1.524 7.805 2.84 14.546 2.575 15.866-.096.477.194.943.647 1.043.059.014.116.02.175.02a.85.85 0 0 0 .82-.699c.321-1.603-.661-6.786-2.572-16.582-2.115-10.832-4.961-25.434-6.209-38.293.09-.085.185-.17.235-.298a.89.89 0 0 0-.359-1.083c-.46-5.175-.635-10.02-.379-14.179 2.842-.19 12.422-1.52 15.019-10.807.13-.467-.124-.956-.569-1.091-.444-.134-.908.13-1.04.596-2.274 8.133-10.508 9.37-13.277 9.546.784-9.057 2.893-18.65 4.947-27.942 1.365-6.178 2.693-12.197 3.595-17.863.935.338 1.836.5 2.694.5 4.569 0 7.94-4.262 9.256-7 .206-.44.04-.97-.372-1.187Z"/><g><path fill="#55CEB3" d="M520.478 364.37c8.427-20.703 20.998-50.036-4.694-67.357-25.694-17.321-2.237-27.577-1.403-52.682.834-25.106-25.394-31.558-24.608-43.462.784-11.904 2.086-32.953-.334-41.935-4.052-15.03-34.37-21.855-37.462 20.466-1.944 26.593-4.557 42.649-18.063 61.619-13.505 18.97 16.245 39.025 15.695 54.295-.55 15.27-15.21 13.01-13.607 45.372 1.603 32.363 21.859 56.838 41.12 55.394 13.079-.98 35.663-12.812 43.356-31.71Z"/><path fill="#39B499" d="M512.297 323.893c.016-.486-.347-.895-.81-.913-.445.04-.85.365-.868.85-.483 14.503-19.195 25.066-25.133 28.059.662-7.443.902-14.486.438-20.561-1.012-13.286-4.12-27.353-7.124-40.956-3.82-17.292-7.43-33.704-6.401-46.741 3.01-.807 14.56-4.629 18.231-16.536.143-.463-.099-.96-.538-1.11-.442-.152-.915.105-1.058.565-3.162 10.248-12.997 14.122-16.457 15.19.085-.721.174-1.439.292-2.136 2.695-16.06.9-36.662-.172-48.97-.495-5.69-.886-10.178-.599-11.368.114-.472-.157-.952-.606-1.07-.443-.125-.906.164-1.018.637-.344 1.415-.046 5.076.554 11.962 1.064 12.22 2.846 32.675.19 48.504a46.89 46.89 0 0 0-.407 3.165.916.916 0 0 0-.12.656c.01.054.036.098.055.148-.509 6.133-.022 12.95 1.043 20.239-.008.003-.016.001-.023.005-9.137 3.935-14.73-7.37-14.962-7.85-.21-.436-.717-.61-1.128-.39-.415.22-.58.751-.371 1.185.055.112 4.75 9.651 12.675 9.651 1.275 0 2.64-.263 4.078-.837 1.264 8.074 3.157 16.673 5.107 25.503 2.915 13.2 5.913 26.832 6.992 39.697-3.482-.23-16.031-1.8-19.346-13.665-.13-.465-.596-.733-1.042-.597-.447.136-.7.625-.57 1.093 3.696 13.22 17.637 14.771 21.09 14.95.4 6.074.133 13.075-.561 20.485l-.032.014c-.427.187-.63.701-.452 1.15.07.177.19.31.332.404-1.767 17.535-5.758 37.05-8.725 51.543-2.659 12.988-4.027 19.865-3.59 22.047a.85.85 0 0 0 .82.7.746.746 0 0 0 .175-.02c.453-.1.744-.567.648-1.043-.384-1.916 1.457-10.907 3.588-21.314 3.008-14.683 7.063-34.503 8.813-52.286 4.92-2.336 26.44-13.494 26.992-30.039Z"/></g></g><path fill="#143E81" fill-rule="nonzero" d="M125.627 166v19.456h51.745V166H182v282h-4.627l-.001-33.587h-51.745V448H121V166h4.627Zm51.745 243.721v-45.248h-51.745v45.248h51.745Zm0-49.94v-38.939h-51.745v38.939h51.745Zm0-43.632v-39.61h-51.745v39.61h51.745Zm0-44.303v-43.987h-51.745v43.987h51.745Zm0-48.68v-33.017h-51.745v33.017h51.745Z"/><g transform="rotate(7 1.925 1557.635)"><path fill="#3E65A3" d="M218.494 213.654a10.104 10.104 0 0 1 13.594-.643l102.313 84.72c10.341 8.563 11.783 23.888 3.22 34.23-.482.58-.99 1.14-1.523 1.673-9.288 9.3-24.357 9.311-33.658.023a23.8 23.8 0 0 1-1.81-2.027l-82.91-104.26a10.321 10.321 0 0 1 .774-13.716Z"/><circle cx="129.5" cy="129.5" r="129.5" fill="url(#linearGradient-1)" fill-rule="nonzero"/><circle cx="128.5" cy="129.5" r="122.5" stroke="#DCEEFD" stroke-width="8"/><circle cx="129.5" cy="129.5" r="129.5" stroke="#143E81" stroke-width="16"/><path fill="#FFF" d="M59.318 71.798c7.429-6.055 13.656-1.008 14.054 4.846.399 5.855-8.063 8.31-13.26 22.756-5.196 14.447 2.043 21.031-3.961 27.327-6.004 6.296-12.453 1.117-14.055-4.846-1.602-5.963-1.623-16.12 1.889-26.332s7.904-17.696 15.333-23.75Z"/></g><path fill="#FECCA9" fill-rule="nonzero" d="M493.325 294.733s-2.11-4.973-2.653-5.947c-.543-.974 1.76-8.71.639-8.868-1.122-.159-2.08 4.731-2.08 4.731s-2.636-8.066-3.715-8.405c-1.078-.339-4.341 5.182-3.925 7.924.416 2.742 3.783 7.233 4.833 8.511 1.05 1.278 2.792 5.962 2.792 5.962l4.109-3.908Z"/><path fill="#096DD9" fill-rule="nonzero" d="M492.358 291.17s13.24 30.451 23.438 39.383l-12.568 2.24s-11.499-21.66-16.324-38.835l5.454-2.788Z"/><path fill="#FECCA9" fill-rule="nonzero" d="M510.446 308.72c0-1.466 3.614-5.262 4.956-5.18l-.513-.569c2.624-.368 7.96.885 9.775 5.147 2.05 4.813-.598 17.985-1.367 18.998-.768 1.014-10.335-.506-10.104-1.013.231-.506 2.332-6.248 2.502-7.177.17-.93-5.124-1.942-5.006-5.574.034-1.049.242-1.283.42-2.332.2-1.178-.663-1.578-.663-2.3Z"/><g fill-rule="nonzero" transform="scale(-1 1) rotate(-41 100.072 812.59)"><path fill="#EC9338" d="M53.154 3.16H7.594C3.4 3.16 0 6.545 0 10.723v56.734c0 4.179 3.4 7.565 7.594 7.565h45.56c4.194 0 7.594-3.386 7.594-7.565V10.724c-.001-4.178-3.4-7.565-7.594-7.565Z"/><path fill="#F7A959" d="M53.154 0H7.594C3.4 0 0 3.387 0 7.565v56.734c0 4.178 3.4 7.565 7.594 7.565h45.56c4.194 0 7.594-3.387 7.594-7.565V7.565C60.747 3.387 57.348 0 53.154 0Z"/><path fill="#FFF4E8" d="M30.373 45.388c-10.467 0-18.984-8.484-18.984-18.911 0-10.427 8.516-18.912 18.984-18.912 10.466 0 18.984 8.484 18.984 18.912 0 10.426-8.517 18.911-18.984 18.911Zm0-34.041c-8.376 0-15.187 6.785-15.187 15.129s6.811 15.128 15.187 15.128 15.186-6.784 15.186-15.128c0-8.344-6.81-15.13-15.186-15.13Z"/><path fill="#FFF" d="M30.373 45.388c-10.467 0-18.984-8.484-18.984-18.911 0-10.427 8.516-18.912 18.984-18.912 1.05 0 1.898.846 1.898 1.89 0 1.046-.85 1.892-1.898 1.892-8.376 0-15.187 6.785-15.187 15.129s6.811 15.128 15.187 15.128 15.186-6.784 15.186-15.128c0-1.046.85-1.891 1.899-1.891 1.048 0 1.898.846 1.898 1.89 0 10.428-8.516 18.913-18.983 18.913Z"/><ellipse cx="47.459" cy="26.477" fill="#F09A5E" rx="3.796" ry="3.782"/><path fill="#F09A5E" d="M37.967 52.952H22.78a1.9 1.9 0 0 0-1.898 1.891 1.9 1.9 0 0 0 1.898 1.891h15.187a1.9 1.9 0 0 0 1.898-1.89 1.9 1.9 0 0 0-1.898-1.892Z"/><path fill="#FECCA9" d="M37.967 60.517H22.78a1.9 1.9 0 0 0-1.898 1.891A1.9 1.9 0 0 0 22.78 64.3h15.187a1.9 1.9 0 0 0 1.898-1.89 1.9 1.9 0 0 0-1.898-1.892Z"/></g><path fill="#FECCA9" fill-rule="nonzero" d="M477.274 307.02s-2.93-4.347-3.662-5.162c-.731-.815-1.19-8.513-2.288-8.422-1.098.09-.916 4.98-.916 4.98s-4.302-7.154-5.4-7.245c-1.099-.09-3.48 6.973-2.472 9.51 1.007 2.535 5.593 4.972 6.874 5.968 1.281.996 4.485 4.8 4.485 4.8l3.379-4.43ZM569.079 426.713l4.501 4.304-4.127 5.301-5.504-4.903z"/><path fill="#FECCA9" d="m543.833 390.38-12.12 4.397 13.47 19.454 3.852 5.524 15.408 11.9 4.902-4.557-14.688-14.306zM525.427 394.03l-13.315-1.469-.596 19.309.596 7.092 2.972 20.558h7.018l-1.581-21.728z"/><path fill="#FECCA9" fill-rule="nonzero" d="M521.908 439.52h-7.182l1.066 9.606 6.425-1.318z"/><path fill="#53A4FC" fill-rule="nonzero" d="m471.924 309.705 5.083-4.66s20.512 19.047 26.717 20.54c6.205 1.494 17.11-4.108 20.683-.934 4.378 3.89 3.76 21.832 3.76 26.143 0 9.509 4.722 11.875 4.75 14.165-4.136 3.36-21.786 2.817-25.334 3.054.608-2.855 2.336-7.028 2.201-11.992-.135-4.965-7.087-6.784-7.364-10.407-.276-3.622.99-5.437 2.73-7.54-8.443-5.224-23.46-15.573-33.226-28.369Z"/><path fill="#096DD9" fill-rule="nonzero" d="M525.03 358.758c1.77 5.204 4.19 3.885 7.887 6.054-2.35-5.325-4.842-7.676-4.842-14.133 0-1.35.058-4.04.008-7.213-1.39 2.08-5.279 8.722-3.053 15.292Z"/><path fill="#0A2A55" fill-rule="nonzero" d="M511.286 303.498c-1.205.515-2.364-10.167 6.048-11.584 8.834-1.083 18.078-2.462 19.835 7.696.49 3.033 5.368 5.722 2.718 8.777-2.65 3.055-1.046 3.815 2.112 6.965 3.158 3.15-.917 9.177 3.46 11.854 4.069 1.948-.54 7.787 1.682 9.61 13.626 14.916-24.872 11.44-31.482-.737-1.805-6.888 7.544-8.747 4.683-16.563-3.086-8.01.172-4.841 2.154-9.47 1.04-3.27-3.264-2.07-5.162-.765 2.338-5.254-2.572-5.783-6.048-5.783Z"/><path fill="#001529" d="M578.988 435.803c-.098-1.458-4.778-5.358-5.422-4.764-4.376 4.03-13.302 18.204-12.029 19.62 1.273 1.418 17.549-13.394 17.45-14.856ZM524.071 453.338c.893-1.163.242-6.554-.637-6.525-5.977.203-22.41 4.52-22.39 6.416.022 1.896 22.131 1.277 23.027.11Z"/><path fill="#3E65A3" d="M532.25 363.744c7.891 8.727 14.165 16.257 18.823 22.59 1.614 6.72-52.778 16.508-53.436 14.498-.657-2.01 8.949-35.237 9.74-34.731 1.036-.18 9.327-.965 24.873-2.357Z"/><path fill="#143E81" d="M530.777 369.08c12.563 10.144 19.324 16.014 20.284 17.612.413 1.4-1.892 3.001-6.913 4.801l-13.37-22.412ZM525.438 370.444l13.297 23.388-5.03 1.46zM519.16 371.904l8.742 24.859-5.474 1.247zM513.067 374.504l2.312 24.937-4.59.763zM507.739 379.517l-1.73 21.423c-2.362.301-4.285.494-5.772.58-.16-.53 2.34-7.865 7.502-22.003Z"/><g><path fill="#FECCA9" fill-rule="nonzero" d="M161.608 180.354c1.198 2.569.61 3.967.904 5.05.294 1.082 1.418 3.268 1.467 4.304.047 1.036-1.056 1.177-1.294 2.533-.238 1.354.387 3.119-.44 4.538-.827 1.42-4.038 1.092-3.85 2.462.19 1.37 2.213 6.455 2.213 6.455l-13.205.211s.527-7.401-.144-10.46c-.672-3.06-2.16-14.299.581-15.662 2.742-1.363 12.497-2.158 13.768.57Z"/><path fill="#0A2A55" fill-rule="nonzero" d="M151.39 172.54c-10.986.341-11.872 5.091-11.746 13.66.075 5.107 2.898 12.177 6.605 12.153 2.673-.017 7.942-.313 8.866-1.772 2.191-3.46.314-8.237 1.783-9.886 2.088-2.343 6.831-1.137 6.18-9.21-.373-12.777-.703-5.288-11.689-4.946Z"/><path fill="#FECCA9" fill-rule="nonzero" d="M166.292 350.945v4.869h7.367l.002-6.942zM140.889 351.148v5.755h-7.493v-7.064z"/><path fill="#143E81" fill-rule="nonzero" d="M136.51 262.43s-2.261 30.628-2.677 39.469c-.415 8.841-.438 47.94-.438 47.94l7.82.07s5.575-25.216 5.274-39.68c1.8-5.802 11.298-39.648 11.436-46.555.14-6.908-17.956-4.698-21.416-1.244Z"/><path fill="#3E65A3" fill-rule="nonzero" d="M171.367 262.43s3.24 31.043 3.657 39.883c.415 8.841-1.165 47.526-1.165 47.526l-8.09.548s-4.066-20.998-4.415-40.365c-1.8-5.802-12.902-39.896-13.04-46.803-.14-6.906 19.593-4.243 23.053-.79Z"/><path fill="#FECCA9" fill-rule="nonzero" d="M134.475 225.27s-6.141 7.609-4.895 13.618c1.245 6.01 8.944 18.189 10.812 20.882 1.868 2.694-3.082 5.595-3.082 5.595s-15.768-20.444-18.26-26.66c-2.49-6.217 8.679-22.449 8.679-22.449l6.746 9.014ZM174.15 199.61s6.913-.857 10.692-12.585c3.78-11.728 4.88-27.475 3.503-30.95-2.18-5.506.166-10.918.778-13.178.466-1.714 1.846-4.07 2.232-2.223.23 1.108.054 3.982-.38 6.1-.388 1.885 5.535 2.072 4.704 4.973-.83 2.9-1.66 2.714-1.798 4.775-.138 2.061.968 25.545-.554 31.07-1.523 5.526-7.335 19.892-11.625 22.517-4.29 2.626-7.553-10.499-7.553-10.499Z"/><path fill="#F7A959" fill-rule="nonzero" d="M156.376 204.03c-3.217-.033-16.815-1.035-23.562 5.18-6.746 6.217-9.133 10.983-9.549 12.226-.415 1.244 8.304 7.978 10.068 6.63 1.764-1.346 1.787-3.402 3.863-3.402s1.822 10.345.992 16.147c-.83 5.802-5.373 22.69-1.844 24.243 3.53 1.553 12.606-1.035 17.899.311 5.293 1.347 14.174 2.9 17.08-.415 2.906-3.315.104-16.058 0-24.14-.104-8.08-.287-21.342 4.591-24.554 4.879-3.211 9.11-3.42 9.317-6.424.208-3.005-8.511-12.536-10.587-11.5-2.076 1.036-5.843 5.387-9.755 5.491-3.913.104-6.229.232-8.513.208Z"/><path fill="#6388C2" fill-rule="nonzero" d="M175.67 350.2c-.627 1.944-3.017 1.64-4.532 1.957-1.515.316-6.793 1.05-6.983-.389-.19-1.438.553-2.488.454-3.589-.098-1.1-1.31-2.5-.084-3.328 1.224-.826 3.262-.053 4.743-.013 1.083.03 5.077-1.669 5.562-.986.486.682-.177 1.99-.01 2.836.251 1.257 1.338 2.004.85 3.513ZM132.005 351.235c.73 1.908 3.1 1.48 4.63 1.717 1.528.237 6.838.693 6.953-.753.114-1.446-.682-2.457-.641-3.561.04-1.105 1.176-2.567-.091-3.327-1.267-.76-3.262.116-4.738.234-1.08.087-5.157-1.401-5.606-.694-.449.707.281 1.979.158 2.833-.183 1.266-1.23 2.07-.665 3.55Z"/><path fill="#0A2A55" fill-rule="nonzero" d="M165.266 354.877c1.026-1.036 2.807.622 4.621.622 1.815 0 2.825-1.243 3.772-1.312.949-.07 1.433 2.14 3.44 3.154 1.191.602 4.014.9 4.014 4.349 0 .853-15.345.637-15.847.358-.955-.533-1.025-6.135 0-7.171ZM132.467 354.877c1.025-1.036 2.807.622 4.62.622 1.815 0 2.825-1.243 3.773-1.312.948-.07 1.433 2.14 3.44 3.154 1.19.602 4.013.9 4.013 4.349 0 .853-15.345.637-15.846.358-.957-.533-1.026-6.135 0-7.171Z"/><path fill="#F09A5E" d="M158.558 198.71c-.557-.709-1.996-1.177-4.315-1.405l4.894 4.485c-.707-1.835-.9-2.862-.58-3.08Z"/></g><g fill-rule="nonzero" transform="translate(201 351)"><path fill="#FBDFCB" d="M59.08 63.921H.738S.218 96.5 29.91 96.5s29.17-32.579 29.17-32.579Z"/><ellipse cx="29.909" cy="63.921" fill="#E8ECFC" rx="29.171" ry="9.305"/><path fill="#55CEB3" d="M29.909 67.276S7.735 31.177 15.973.547c0 0 15.477 28.1 13.936 66.729ZM29.909 67.276s1.957-42.233 26.046-63.054c-.001-.001-3.002 31.884-26.046 63.054Z"/><path fill="#39B499" d="M29.909 71.25S20.06 30.12 37.432 3.515c0 .001 5.97 31.471-7.523 67.737Z"/></g></g></svg>