<?xml version="1.0" standalone="no"?><!DOCTYPE svg PUBLIC "-//W3C//DTD SVG 1.1//EN" "http://www.w3.org/Graphics/SVG/1.1/DTD/svg11.dtd"><svg t="1624459078164" class="icon" viewBox="0 0 1024 1024" version="1.1" xmlns="http://www.w3.org/2000/svg" p-id="5437" xmlns:xlink="http://www.w3.org/1999/xlink" width="16" height="16"><defs><style type="text/css"></style></defs><path d="M457.386667 546.133333h-102.4c-20.48 0-34.133333-13.653333-34.133334-34.133333s13.653333-34.133333 34.133334-34.133333h102.4c20.48 0 34.133333 13.653333 34.133333 34.133333s-13.653333 34.133333-34.133333 34.133333z m296.96 307.2c17.066667-10.24 20.48-30.72 10.24-47.786666-10.24-17.066667-30.72-20.48-47.786667-10.24-85.333333 58.026667-191.146667 71.68-286.72 44.373333-180.906667-54.613333-283.306667-245.76-232.106667-423.253333 27.306667-88.746667 85.333333-160.426667 163.84-201.386667 78.506667-44.373333 174.08-54.613333 259.413334-27.306667 88.746667 27.306667 160.426667 85.333333 201.386666 163.84 44.373333 78.506667 54.613333 174.08 27.306667 259.413334-10.24 30.72-20.48 58.026667-37.546667 85.333333-10.24 17.066667-6.826667 37.546667 10.24 47.786667 17.066667 10.24 37.546667 6.826667 47.786667-10.24 20.48-34.133333 37.546667-68.266667 47.786667-102.4 30.72-105.813333 20.48-215.04-34.133334-310.613334-51.2-95.573333-139.946667-167.253333-242.346666-197.973333-215.04-64.853333-443.733333 61.44-508.586667 276.48C68.266667 610.986667 194.56 839.68 409.6 904.533333c37.546667 10.24 78.506667 17.066667 116.053333 17.066667 81.92 0 160.426667-23.893333 228.693334-68.266667z m-23.893334-341.333333c0-20.48-13.653333-34.133333-34.133333-34.133333h-102.4c-20.48 0-34.133333 13.653333-34.133333 34.133333s13.653333 34.133333 34.133333 34.133333h102.4c20.48 0 34.133333-17.066667 34.133333-34.133333z m-170.666666 170.666667v-102.4c0-20.48-13.653333-34.133333-34.133334-34.133334s-34.133333 13.653333-34.133333 34.133334v102.4c0 20.48 13.653333 34.133333 34.133333 34.133333s34.133333-17.066667 34.133334-34.133333z m0-238.933334v-102.4c0-20.48-13.653333-34.133333-34.133334-34.133333s-34.133333 13.653333-34.133333 34.133333v102.4c0 20.48 13.653333 34.133333 34.133333 34.133334s34.133333-17.066667 34.133334-34.133334z" fill="#50b5ff" p-id="5438" data-spm-anchor-id="a313x.7781069.0.i0" class=""></path></svg>