<?xml version="1.0" standalone="no"?><!DOCTYPE svg PUBLIC "-//W3C//DTD SVG 1.1//EN" "http://www.w3.org/Graphics/SVG/1.1/DTD/svg11.dtd"><svg t="1628243006068" class="icon" viewBox="0 0 1024 1024" version="1.1" xmlns="http://www.w3.org/2000/svg" p-id="12382" xmlns:xlink="http://www.w3.org/1999/xlink" width="200" height="200"><defs><style type="text/css"></style></defs><path d="M867.84 324.906667a384 384 0 0 0-211.413333-211.413334 386.56 386.56 0 0 0-288.853334 0A384 384 0 0 0 128 469.333333a384 384 0 0 0 112.426667 271.573334l214.613333 214.4a79.786667 79.786667 0 0 0 26.666667 17.706666 79.786667 79.786667 0 0 0 60.586666 0 79.786667 79.786667 0 0 0 26.666667-17.706666l53.76-53.546667a42.666667 42.666667 0 0 0-60.373333-60.373333L512 891.733333l-211.2-211.2a298.666667 298.666667 0 0 1 0-422.4A296.106667 296.106667 0 0 1 399.573333 192a298.666667 298.666667 0 0 1 224.853334 0 296.106667 296.106667 0 0 1 98.773333 66.133333 298.666667 298.666667 0 0 1 0 422.4l-53.76 53.546667a42.666667 42.666667 0 0 0 60.373333 60.373333l53.76-53.546666a384 384 0 0 0 85.333334-416z" fill="#333333" p-id="12383"></path><path d="M632.746667 348.586667a170.666667 170.666667 0 1 0 0 241.493333 170.666667 170.666667 0 0 0 0-241.493333z m-60.373334 181.12a87.466667 87.466667 0 0 1-120.746666 0 85.333333 85.333333 0 1 1 120.746666 0z" fill="#333333" p-id="12384"></path></svg>