<?xml version="1.0" standalone="no" ?>
<!DOCTYPE svg PUBLIC "-//W3C//DTD SVG 1.1//EN" "http://www.w3.org/Graphics/SVG/1.1/DTD/svg11.dtd">
<svg t="1624002537957" class="icon" viewBox="0 0 1024 1024" version="1.1" xmlns="http://www.w3.org/2000/svg" p-id="1434" xmlns:xlink="http://www.w3.org/1999/xlink" width="16" height="16">
  <defs>
    <style type="text/css"></style>
  </defs>
  <path d="M485.493811 587.391061l62.032822 0c-1.954515 16.158005-5.636371 30.886451-11.08036 44.164872l190.410678 49.591465-29.002544 53.867862c-71.681576-24.290219-135.146003-44.217061-190.408631-59.764152-30.641881 31.984459-92.744287 52.068889-186.326663 60.2185-7.556093-17.502629-17.030885-36.521798-28.547173-57.043181 69.746504-4.065596 118.831432-12.684904 147.187247-25.825179C468.113979 639.460973 483.399103 617.736183 485.493811 587.391061L485.493811 587.391061 485.493811 587.391061zM485.947136 288.540625l61.578474 0 0 52.977585 46.188972 0c11.325953-16.917298 21.883403-33.957393 31.688723-51.170426l51.181683 21.741163-20.608364 29.429263 75.380828 0 0 100.526531-55.244208 0L676.113243 388.613832 358.21601 388.613832l0 53.43091-55.210439 0 0-100.526531 71.752184 0c-5.565762-9.509585-11.377118-19.029402-17.414625-28.538987l48.440246-22.187325c11.656481 17.213034 22.509666 34.123168 32.596396 50.725288l47.567365 0L485.947136 288.540625 485.947136 288.540625 485.947136 288.540625zM339.684958 653.071969 339.684958 529.894555l353.197204 0 0 123.17639-59.765175 0 0-74.28282L399.467529 578.788126l0 74.28282L339.684958 653.070946 339.684958 653.071969 339.684958 653.071969zM377.305787 509.060041l0-99.174744 279.803637 0 0 99.174744L377.305787 509.060041 377.305787 509.060041 377.305787 509.060041zM432.517249 471.927329 601.881588 471.927329l0-24.909319L432.517249 447.01801 432.517249 471.927329 432.517249 471.927329 432.517249 471.927329zM511.946276 65.281819c-246.596328 0-446.656783 200.024639-446.656783 446.700785 0 246.710938 200.059432 446.735577 446.656783 446.735577 246.721171 0 446.763207-200.024639 446.763207-446.735577C958.709483 265.298272 758.667447 65.281819 511.946276 65.281819L511.946276 65.281819 511.946276 65.281819zM511.946276 910.050762c-219.829707 0-397.989363-178.230264-397.989363-398.059971 0-219.828684 178.160679-398.042575 397.989363-398.042575 219.882919 0 398.078391 178.212868 398.078391 398.042575C910.024667 731.821521 731.829196 910.050762 511.946276 910.050762L511.946276 910.050762 511.946276 910.050762zM511.946276 910.050762" p-id="1435" data-spm-anchor-id="a313x.7781069.0.i2" class="selected"></path>
</svg>