<svg t="1629733588389" class="icon" viewBox="0 0 1024 1024" version="1.1" xmlns="http://www.w3.org/2000/svg" p-id="13694" width="200" height="200"><path d="M851.7 958.9c-27.9 0-50.5-22.6-50.5-50.5 0-155.5-126.5-282-282-282s-282 126.5-282 282c0 27.9-22.6 50.5-50.5 50.5s-50.5-22.6-50.5-50.5c0-211.2 171.8-383 383-383s383 171.8 383 383c0 27.9-22.7 50.5-50.5 50.5z" p-id="13695" data-spm-anchor-id="a313x.7781069.0.i17" class="selected"></path><path d="M510.8 609.6C360 609.6 237.2 486.9 237.2 336S359.9 62.5 510.8 62.5c150.8 0 273.6 122.7 273.6 273.6S661.6 609.6 510.8 609.6z m0-446.1c-95.1 0-172.5 77.4-172.5 172.5s77.4 172.6 172.5 172.6S683.4 431.2 683.4 336c-0.1-95.1-77.5-172.5-172.6-172.5z" p-id="13696" data-spm-anchor-id="a313x.7781069.0.i18" class="selected"></path><path d="M563.4 392.9m-65.2 0a65.2 65.2 0 1 0 130.4 0 65.2 65.2 0 1 0-130.4 0Z" p-id="13697" data-spm-anchor-id="a313x.7781069.0.i19" class="selected"></path></svg>