<svg t="1606548998236" class="icon" viewBox="0 0 1024 1024" version="1.1" xmlns="http://www.w3.org/2000/svg" p-id="26984" width="16" height="16"><path d="M779.636364 954.181818h-535.272728A174.778182 174.778182 0 0 1 69.818182 779.636364v-535.272728A174.778182 174.778182 0 0 1 244.363636 69.818182H512a34.909091 34.909091 0 0 1 0 69.818182H244.363636A104.96 104.96 0 0 0 139.636364 244.363636v535.272728a104.96 104.96 0 0 0 104.727272 104.727272h535.272728a104.96 104.96 0 0 0 104.727272-104.727272V512a34.909091 34.909091 0 0 1 69.818182 0v267.636364a174.778182 174.778182 0 0 1-174.545454 174.545454z" p-id="26985" data-spm-anchor-id="a313x.7781069.0.i105" class="selected" fill="#555555"></path><path d="M500.363636 558.545455a35.141818 35.141818 0 0 1-24.669091-10.24 34.676364 34.676364 0 0 1 0-49.338182l418.909091-418.909091a34.909091 34.909091 0 0 1 49.338182 49.338182l-418.909091 418.909091a35.141818 35.141818 0 0 1-24.669091 10.24z" p-id="26986" data-spm-anchor-id="a313x.7781069.0.i110" class="selected" fill="#555555"></path><path d="M919.272727 139.636364h-186.181818a34.909091 34.909091 0 0 1 0-69.818182h186.181818a34.909091 34.909091 0 0 1 0 69.818182z" p-id="26987" data-spm-anchor-id="a313x.7781069.0.i104" class="selected" fill="#555555"></path><path d="M919.272727 325.818182a34.909091 34.909091 0 0 1-34.909091-34.909091v-186.181818a34.909091 34.909091 0 0 1 69.818182 0v186.181818a34.909091 34.909091 0 0 1-34.909091 34.909091z" p-id="26988" data-spm-anchor-id="a313x.7781069.0.i108" class="selected" fill="#555555"></path></svg>