<svg t="1606543261436" class="icon" viewBox="0 0 1470 1024" version="1.1" xmlns="http://www.w3.org/2000/svg" p-id="6221" width="16" height="16"><path d="M735.494181 1024C432.047247 1024 174.31301 782.629842 47.491402 638.376932a191.922182 191.922182 0 0 1 0-252.753864C174.31301 241.548028 432.047247 0 735.494181 0S1296.497481 241.548028 1422.963349 385.623068a191.922182 191.922182 0 0 1 0 252.753864 1503.005037 1503.005037 0 0 1-205.618204 195.657461 48.736495 48.736495 0 0 1-59.764461-77.017891A1440.750391 1440.750391 0 0 0 1350.036477 573.987841a93.915581 93.915581 0 0 0 0-124.509293C1234.242835 318.388049 1000.343234 97.472989 735.494181 97.472989S236.567657 318.388049 120.774014 450.012159a93.915581 93.915581 0 0 0 0 124.509293c115.793643 131.62411 349.693243 352.53917 614.720167 352.53917a525.251346 525.251346 0 0 0 145.498002-21.522321 48.736495 48.736495 0 1 1 27.036304 93.737711 624.147299 624.147299 0 0 1-172.534306 24.723988z" p-id="6222" data-spm-anchor-id="a313x.7781069.0.i15" class="selected"></path><path d="M738.695849 769.467431a242.615251 242.615251 0 1 1 242.43738-242.437381 48.736495 48.736495 0 1 1-97.472989 0 144.964391 144.964391 0 1 0-144.964391 144.964392 48.736495 48.736495 0 1 1 0 97.472989z" p-id="6223" data-spm-anchor-id="a313x.7781069.0.i16" class="selected"></path></svg>