<?xml version="1.0" standalone="no"?><!DOCTYPE svg PUBLIC "-//W3C//DTD SVG 1.1//EN" "http://www.w3.org/Graphics/SVG/1.1/DTD/svg11.dtd"><svg t="1638261897019" class="icon" viewBox="0 0 1024 1024" version="1.1" xmlns="http://www.w3.org/2000/svg" p-id="4842" xmlns:xlink="http://www.w3.org/1999/xlink" width="200" height="200"><defs><style type="text/css"></style></defs><path d="M176 232c0-30.93 25.07-56 56-56h616v-56c0-30.93-25.07-56-56-56H120c-30.93 0-56 25.07-56 56v672c0 30.93 25.07 56 56 56h56V232z" fill="#313FA0" p-id="4843"></path><path d="M176 904V232c0-30.93 25.07-56 56-56h672c30.93 0 56 25.07 56 56v672c0 30.93-25.07 56-56 56H232c-30.93 0-56-25.07-56-56z" fill="#E1F5FF" p-id="4844"></path><path d="M960 347.5H176V232c0-30.93 25.07-56 56-56h672c30.93 0 56 25.07 56 56v115.5z" fill="#8C9EFF" p-id="4845"></path><path d="M274 261.75m-24.5 0a24.5 24.5 0 1 0 49 0 24.5 24.5 0 1 0-49 0Z" fill="#FF4343" p-id="4846"></path><path d="M347.5 261.75m-24.5 0a24.5 24.5 0 1 0 49 0 24.5 24.5 0 1 0-49 0Z" fill="#FFD600" p-id="4847"></path><path d="M421 261.75m-24.5 0a24.5 24.5 0 1 0 49 0 24.5 24.5 0 1 0-49 0Z" fill="#65FF40" p-id="4848"></path><path d="M629.25 514.92h-269.5c-20.3 0-36.75 16.45-36.75 36.75s16.45 36.75 36.75 36.75h269.5c20.3 0 36.75-16.45 36.75-36.75s-16.45-36.75-36.75-36.75zM776.25 719.08h-416.5c-20.3 0-36.75 16.45-36.75 36.75s16.45 36.75 36.75 36.75h416.5c20.3 0 36.75-16.45 36.75-36.75 0-20.29-16.45-36.75-36.75-36.75z" fill="#FFD600" p-id="4849"></path></svg>